<?xml version="1.0" encoding="UTF-8"?>
<!DOCTYPE svg PUBLIC "-//W3C//DTD SVG 1.1//EN" "http://www.w3.org/Graphics/SVG/1.1/DTD/svg11.dtd">
<svg xmlns="http://www.w3.org/2000/svg" version="1.1" width="460px" height="190px" style="shape-rendering:geometricPrecision; text-rendering:geometricPrecision; image-rendering:optimizeQuality; fill-rule:evenodd; clip-rule:evenodd" xmlns:xlink="http://www.w3.org/1999/xlink">
<g><path style="opacity:1" fill="#fdfcfc" d="M -0.5,-0.5 C 152.833,-0.5 306.167,-0.5 459.5,-0.5C 459.5,62.8333 459.5,126.167 459.5,189.5C 306.167,189.5 152.833,189.5 -0.5,189.5C -0.5,126.167 -0.5,62.8333 -0.5,-0.5 Z"/></g>
<g><path style="opacity:1" fill="#f6d8d8" d="M 92.5,31.5 C 87.9677,31.1818 83.6344,31.5151 79.5,32.5C 78.8333,32.5 78.1667,32.5 77.5,32.5C 77.6107,31.8826 77.944,31.3826 78.5,31C 83.3522,30.1849 88.0189,30.3516 92.5,31.5 Z"/></g>
<g><path style="opacity:1" fill="#db6262" d="M 79.5,32.5 C 83.6344,31.5151 87.9677,31.1818 92.5,31.5C 92.5,32.5 92.5,33.5 92.5,34.5C 92.1667,34.5 91.8333,34.5 91.5,34.5C 87.9707,32.5772 83.9707,31.9106 79.5,32.5 Z"/></g>
<g><path style="opacity:1" fill="#df7171" d="M 193.5,33.5 C 200.012,32.3683 206.679,32.3683 213.5,33.5C 213.5,33.8333 213.5,34.1667 213.5,34.5C 206.852,33.8605 200.186,33.5272 193.5,33.5 Z"/></g>
<g><path style="opacity:1" fill="#ce2e2d" d="M 77.5,32.5 C 78.1667,32.5 78.8333,32.5 79.5,32.5C 83.9707,31.9106 87.9707,32.5772 91.5,34.5C 91.0074,36.8056 90.6741,39.139 90.5,41.5C 89.4995,48.1719 88.4995,54.8386 87.5,61.5C 86.6618,61.8417 86.3284,62.5084 86.5,63.5C 82.0453,65.9444 77.3786,67.9444 72.5,69.5C 72.3337,62.4921 72.5004,55.4921 73,48.5C 73.3106,44.9101 74.144,41.5767 75.5,38.5C 77.0739,36.8984 77.7406,34.8984 77.5,32.5 Z"/></g>
<g><path style="opacity:1" fill="#eba8a8" d="M 244.5,34.5 C 258.994,33.3391 273.661,33.1724 288.5,34C 289.416,34.2784 290.082,34.7784 290.5,35.5C 289.167,35.5 287.833,35.5 286.5,35.5C 272.677,34.5042 258.677,34.1709 244.5,34.5 Z"/></g>
<g><path style="opacity:1" fill="#f3c7c7" d="M 104.5,35.5 C 107.285,34.1153 109.618,34.782 111.5,37.5C 109.167,36.8333 106.833,36.1667 104.5,35.5 Z"/></g>
<g><path style="opacity:1" fill="#cd2a2a" d="M 193.5,33.5 C 200.186,33.5272 206.852,33.8605 213.5,34.5C 215.945,35.3124 218.278,36.3124 220.5,37.5C 224.515,40.5164 227.848,44.1831 230.5,48.5C 230.796,50.403 231.463,52.0697 232.5,53.5C 232.5,54.5 232.5,55.5 232.5,56.5C 230.901,56.2322 229.568,56.5655 228.5,57.5C 228.167,57.5 227.833,57.5 227.5,57.5C 222.5,57.5 217.5,57.5 212.5,57.5C 211.857,54.0125 209.857,51.5125 206.5,50C 201.897,48.7742 197.897,49.6076 194.5,52.5C 193.833,52.5 193.5,52.8333 193.5,53.5C 192.094,53.9731 191.427,54.9731 191.5,56.5C 185.868,65.1192 186.201,73.4525 192.5,81.5C 197.365,87.8029 203.032,88.8029 209.5,84.5C 210.833,83.5 212.167,82.5 213.5,81.5C 214.404,80.791 214.737,79.791 214.5,78.5C 211.167,78.5 207.833,78.5 204.5,78.5C 204.5,75.1667 204.5,71.8333 204.5,68.5C 204.5,68.1667 204.5,67.8333 204.5,67.5C 204.5,66.8333 204.5,66.1667 204.5,65.5C 214.167,65.5 223.833,65.5 233.5,65.5C 233.5,77.1667 233.5,88.8333 233.5,100.5C 232.209,100.263 231.209,100.596 230.5,101.5C 230.167,101.5 229.833,101.5 229.5,101.5C 226.167,101.5 222.833,101.5 219.5,101.5C 219.785,99.712 219.452,98.0453 218.5,96.5C 217.478,96.8555 216.811,97.5222 216.5,98.5C 215.508,98.3284 214.842,98.6618 214.5,99.5C 213.508,99.3284 212.842,99.6618 212.5,100.5C 206.774,102.941 200.774,103.941 194.5,103.5C 190.723,103.066 187.39,101.733 184.5,99.5C 184.027,98.0937 183.027,97.427 181.5,97.5C 178.473,95.1395 175.806,92.4729 173.5,89.5C 173.573,87.9731 172.906,86.9731 171.5,86.5C 168.373,81.1538 167.04,75.3204 167.5,69C 167.12,63.5135 168.12,58.3469 170.5,53.5C 172.029,49.6319 174.363,46.2985 177.5,43.5C 179.949,40.4442 182.949,38.1108 186.5,36.5C 189.157,36.0652 191.491,35.0652 193.5,33.5 Z"/></g>
<g><path style="opacity:1" fill="#d74e4d" d="M 244.5,34.5 C 258.677,34.1709 272.677,34.5042 286.5,35.5C 272.459,34.8514 258.792,35.5181 245.5,37.5C 245.167,37.5 244.833,37.5 244.5,37.5C 244.5,36.5 244.5,35.5 244.5,34.5 Z"/></g>
<g><path style="opacity:1" fill="#e58886" d="M 193.5,33.5 C 191.491,35.0652 189.157,36.0652 186.5,36.5C 188.176,34.1663 190.509,33.1663 193.5,33.5 Z"/></g>
<g><path style="opacity:1" fill="#f3c6c5" d="M 213.5,34.5 C 213.5,34.1667 213.5,33.8333 213.5,33.5C 216.546,33.7247 218.879,35.058 220.5,37.5C 218.278,36.3124 215.945,35.3124 213.5,34.5 Z"/></g>
<g><path style="opacity:1" fill="#ce2a29" d="M 338.5,34.5 C 338.903,37.4855 339.903,40.1522 341.5,42.5C 342.417,45.4173 343.084,48.4173 343.5,51.5C 344.054,54.7458 345.054,57.7458 346.5,60.5C 346.927,63.0098 347.593,65.3432 348.5,67.5C 348.366,69.2915 348.699,70.9582 349.5,72.5C 349.639,74.337 350.306,74.6704 351.5,73.5C 352.309,71.9291 352.643,70.2624 352.5,68.5C 353.924,66.4855 354.59,64.1522 354.5,61.5C 356.178,55.4126 357.844,49.4126 359.5,43.5C 361.074,41.8984 361.741,39.8984 361.5,37.5C 361.833,36.8333 362.167,36.1667 362.5,35.5C 370.833,35.5 379.167,35.5 387.5,35.5C 387.5,57.1667 387.5,78.8333 387.5,100.5C 386.209,100.263 385.209,100.596 384.5,101.5C 384.167,101.5 383.833,101.5 383.5,101.5C 378.833,101.5 374.167,101.5 369.5,101.5C 369.667,88.4957 369.5,75.4957 369,62.5C 367.961,63.2438 367.461,64.2438 367.5,65.5C 365.742,68.8544 364.742,72.521 364.5,76.5C 364.5,76.8333 364.5,77.1667 364.5,77.5C 363.134,80.9606 362.134,84.6273 361.5,88.5C 360.076,90.5145 359.41,92.8478 359.5,95.5C 357.744,96.5521 357.077,98.2188 357.5,100.5C 356.209,100.263 355.209,100.596 354.5,101.5C 350.5,101.5 346.5,101.5 342.5,101.5C 342.737,100.209 342.404,99.209 341.5,98.5C 340.833,96.1667 340.167,93.8333 339.5,91.5C 339.59,88.8478 338.924,86.5145 337.5,84.5C 337.59,81.8478 336.924,79.5145 335.5,77.5C 334.957,74.7816 334.291,72.115 333.5,69.5C 333.5,68.8333 333.5,68.1667 333.5,67.5C 333.617,65.5165 332.95,63.8498 331.5,62.5C 330.504,68.4632 330.171,74.4632 330.5,80.5C 330.5,87.1667 330.5,93.8333 330.5,100.5C 329.5,100.5 328.5,100.5 327.5,100.5C 322.833,100.5 318.167,100.5 313.5,100.5C 313.831,79.3267 313.497,58.3267 312.5,37.5C 312.5,36.5 312.5,35.5 312.5,34.5C 321.167,34.5 329.833,34.5 338.5,34.5 Z"/></g>
<g><path style="opacity:1" fill="#d95857" d="M 362.5,35.5 C 362.5,35.1667 362.5,34.8333 362.5,34.5C 371.167,34.5 379.833,34.5 388.5,34.5C 388.5,56.8333 388.5,79.1667 388.5,101.5C 387.167,101.5 385.833,101.5 384.5,101.5C 385.209,100.596 386.209,100.263 387.5,100.5C 387.5,78.8333 387.5,57.1667 387.5,35.5C 379.167,35.5 370.833,35.5 362.5,35.5 Z"/></g>
<g><path style="opacity:1" fill="#ce2929" d="M 286.5,35.5 C 287.833,35.5 289.167,35.5 290.5,35.5C 291.93,36.5375 293.597,37.2041 295.5,37.5C 297.167,39.5 298.833,41.5 300.5,43.5C 303.587,51.2123 304.254,59.2123 302.5,67.5C 301.559,69.0495 300.893,70.7162 300.5,72.5C 299.094,72.9731 298.427,73.9731 298.5,75.5C 296.147,76.3403 294.147,77.6736 292.5,79.5C 290.194,79.9926 287.861,80.3259 285.5,80.5C 278.833,80.5 272.167,80.5 265.5,80.5C 265.5,81.8333 265.5,83.1667 265.5,84.5C 265.5,90.1667 265.5,95.8333 265.5,101.5C 264.167,101.5 262.833,101.5 261.5,101.5C 256.36,100.512 251.026,100.179 245.5,100.5C 245.5,79.5 245.5,58.5 245.5,37.5C 258.792,35.5181 272.459,34.8514 286.5,35.5 Z"/></g>
<g><path style="opacity:1" fill="#efb7b6" d="M 338.5,34.5 C 340.655,36.6174 341.655,39.284 341.5,42.5C 339.903,40.1522 338.903,37.4855 338.5,34.5 Z"/></g>
<g><path style="opacity:1" fill="#db615f" d="M 61.5,55.5 C 61.8034,49.8151 61.9701,44.1484 62,38.5C 60.6439,39.3802 59.1439,39.7135 57.5,39.5C 59.4261,37.7073 61.7594,36.7073 64.5,36.5C 63.7628,43.0076 62.7628,49.3409 61.5,55.5 Z"/></g>
<g><path style="opacity:1" fill="#e17a78" d="M 77.5,32.5 C 77.7406,34.8984 77.0739,36.8984 75.5,38.5C 75.2594,36.1016 75.9261,34.1016 77.5,32.5 Z"/></g>
<g><path style="opacity:1" fill="#cc2c2b" d="M 104.5,35.5 C 106.833,36.1667 109.167,36.8333 111.5,37.5C 114.339,39.4203 117.339,41.0869 120.5,42.5C 120.833,43.1667 121.167,43.8333 121.5,44.5C 121.586,45.4959 121.252,46.3292 120.5,47C 114.251,50.0982 107.918,52.9316 101.5,55.5C 101.5,53.1667 101.5,50.8333 101.5,48.5C 102.66,44.3187 103.66,39.9854 104.5,35.5 Z"/></g>
<g><path style="opacity:1" fill="#cd2b2a" d="M 61.5,55.5 C 60.7321,56.2625 60.2321,57.2625 60,58.5C 59.8306,64.8594 59.3306,71.1928 58.5,77.5C 54.8878,78.6395 51.5544,80.3061 48.5,82.5C 47.8281,81.0508 47.1614,79.7175 46.5,78.5C 46.0406,73.9749 45.0406,73.6415 43.5,77.5C 41.7868,78.6354 41.1201,80.302 41.5,82.5C 41.6716,83.4916 41.3382,84.1583 40.5,84.5C 39.8423,85.3984 39.1757,86.3984 38.5,87.5C 34.8878,88.6395 31.5544,90.3061 28.5,92.5C 27.5258,90.2573 27.1924,87.924 27.5,85.5C 27.5,82.8333 27.5,80.1667 27.5,77.5C 28.6693,74.659 29.6693,71.659 30.5,68.5C 30.3284,67.5084 30.6618,66.8417 31.5,66.5C 33.7593,65.656 34.7593,63.9893 34.5,61.5C 35.9063,61.0269 36.573,60.0269 36.5,58.5C 36.7376,56.5956 37.7376,55.2623 39.5,54.5C 40.8333,53.8333 41.8333,52.8333 42.5,51.5C 43.4023,49.6593 44.7356,48.326 46.5,47.5C 48.7488,46.9202 50.4154,45.5869 51.5,43.5C 51.9731,42.0937 52.9731,41.427 54.5,41.5C 56.0269,41.573 57.0269,40.9063 57.5,39.5C 59.1439,39.7135 60.6439,39.3802 62,38.5C 61.9701,44.1484 61.8034,49.8151 61.5,55.5 Z"/></g>
<g><path style="opacity:1" fill="#2b1b1b" d="M 308.5,37.5 C 309.833,37.5 311.167,37.5 312.5,37.5C 312.5,58.8333 312.5,80.1667 312.5,101.5C 311.833,80.6628 311.167,59.6628 310.5,38.5C 309.5,60.1564 309.167,81.8231 309.5,103.5C 315.167,103.5 320.833,103.5 326.5,103.5C 320.69,104.49 314.69,104.823 308.5,104.5C 308.5,82.1667 308.5,59.8333 308.5,37.5 Z"/></g>
<g><path style="opacity:1" fill="#050000" d="M 312.5,101.5 C 317.167,101.5 321.833,101.5 326.5,101.5C 326.5,102.167 326.5,102.833 326.5,103.5C 320.833,103.5 315.167,103.5 309.5,103.5C 309.167,81.8231 309.5,60.1564 310.5,38.5C 311.167,59.6628 311.833,80.6628 312.5,101.5 Z"/></g>
<g><path style="opacity:1" fill="#af2323" d="M 312.5,37.5 C 313.497,58.3267 313.831,79.3267 313.5,100.5C 318.167,100.5 322.833,100.5 327.5,100.5C 327.5,100.833 327.5,101.167 327.5,101.5C 327.167,101.5 326.833,101.5 326.5,101.5C 321.833,101.5 317.167,101.5 312.5,101.5C 312.5,80.1667 312.5,58.8333 312.5,37.5 Z"/></g>
<g><path style="opacity:1" fill="#bbafaf" d="M 362.5,34.5 C 362.5,34.8333 362.5,35.1667 362.5,35.5C 362.167,36.1667 361.833,36.8333 361.5,37.5C 361.167,37.5 360.833,37.5 360.5,37.5C 359.504,37.4142 358.671,37.7476 358,38.5C 357.61,41.1042 356.776,43.4375 355.5,45.5C 355.678,42.7835 356.178,40.1168 357,37.5C 359.018,36.7772 360.852,35.7772 362.5,34.5 Z"/></g>
<g><path style="opacity:1" fill="#df716f" d="M 57.5,39.5 C 57.0269,40.9063 56.0269,41.573 54.5,41.5C 54.9731,40.0937 55.9731,39.427 57.5,39.5 Z"/></g>
<g><path style="opacity:1" fill="#e89999" d="M 91.5,34.5 C 91.8333,34.5 92.1667,34.5 92.5,34.5C 92.5905,37.1522 91.9238,39.4855 90.5,41.5C 90.6741,39.139 91.0074,36.8056 91.5,34.5 Z"/></g>
<g><path style="opacity:1" fill="#e07673" d="M 104.5,35.5 C 103.66,39.9854 102.66,44.3187 101.5,48.5C 100.965,43.6882 101.965,39.3548 104.5,35.5 Z"/></g>
<g><path style="opacity:1" fill="#eeb4b3" d="M 120.5,42.5 C 122.404,42.7376 123.738,43.7376 124.5,45.5C 123.391,45.4431 122.391,45.1098 121.5,44.5C 121.167,43.8333 120.833,43.1667 120.5,42.5 Z"/></g>
<g><path style="opacity:1" fill="#7e1b1b" d="M 360.5,37.5 C 360.833,37.5 361.167,37.5 361.5,37.5C 361.741,39.8984 361.074,41.8984 359.5,43.5C 359.517,41.4352 359.85,39.4352 360.5,37.5 Z"/></g>
<g><path style="opacity:1" fill="#db5c59" d="M 51.5,43.5 C 50.4154,45.5869 48.7488,46.9202 46.5,47.5C 47.5846,45.4131 49.2512,44.0798 51.5,43.5 Z"/></g>
<g><path style="opacity:1" fill="#6c5554" d="M 177.5,43.5 C 174.363,46.2985 172.029,49.6319 170.5,53.5C 169.833,53.5 169.167,53.5 168.5,53.5C 170.105,48.8955 173.105,45.5622 177.5,43.5 Z"/></g>
<g><path style="opacity:1" fill="#1c0e0d" d="M 227.5,57.5 C 221.588,59.4563 215.255,60.1229 208.5,59.5C 205.463,54.1413 200.796,51.808 194.5,52.5C 197.897,49.6076 201.897,48.7742 206.5,50C 209.857,51.5125 211.857,54.0125 212.5,57.5C 217.5,57.5 222.5,57.5 227.5,57.5 Z"/></g>
<g><path style="opacity:1" fill="#eaa2a1" d="M 230.5,48.5 C 232.213,49.6354 232.88,51.302 232.5,53.5C 231.463,52.0697 230.796,50.403 230.5,48.5 Z"/></g>
<g><path style="opacity:1" fill="#e37f7d" d="M 42.5,51.5 C 41.8333,52.8333 40.8333,53.8333 39.5,54.5C 39.5,52.5 40.5,51.5 42.5,51.5 Z"/></g>
<g><path style="opacity:1" fill="#c02828" d="M 121.5,44.5 C 122.391,45.1098 123.391,45.4431 124.5,45.5C 126.833,48.1667 129.167,50.8333 131.5,53.5C 131.511,55.0174 132.177,56.1841 133.5,57C 123.272,63.281 112.606,68.781 101.5,73.5C 100.508,69.2172 100.174,64.8839 100.5,60.5C 100.366,58.7085 100.699,57.0418 101.5,55.5C 107.918,52.9316 114.251,50.0982 120.5,47C 121.252,46.3292 121.586,45.4959 121.5,44.5 Z"/></g>
<g><path style="opacity:1" fill="#f4f1f1" d="M 194.5,52.5 C 200.796,51.808 205.463,54.1413 208.5,59.5C 208.5,59.8333 208.5,60.1667 208.5,60.5C 210.948,61.4731 213.615,61.8064 216.5,61.5C 216.611,62.1174 216.944,62.6174 217.5,63C 212.981,63.1753 208.647,63.6753 204.5,64.5C 204.5,64.8333 204.5,65.1667 204.5,65.5C 204.5,66.1667 204.5,66.8333 204.5,67.5C 203.167,67.5 201.833,67.5 200.5,67.5C 200.5,72.5 200.5,77.5 200.5,82.5C 203.5,82.5 206.5,82.5 209.5,82.5C 209.5,83.1667 209.5,83.8333 209.5,84.5C 203.032,88.8029 197.365,87.8029 192.5,81.5C 188.901,73.3037 188.567,64.9704 191.5,56.5C 192.906,56.0269 193.573,55.0269 193.5,53.5C 193.5,52.8333 193.833,52.5 194.5,52.5 Z"/></g>
<g><path style="opacity:1" fill="#eebbbc" d="M 343.5,51.5 C 345.104,52.287 345.771,53.6203 345.5,55.5C 346.301,57.0418 346.634,58.7085 346.5,60.5C 345.054,57.7458 344.054,54.7458 343.5,51.5 Z"/></g>
<g><path style="opacity:1" fill="#6f6f6f" d="M 168.5,53.5 C 168.573,55.0269 167.906,56.0269 166.5,56.5C 166.427,54.9731 167.094,53.9731 168.5,53.5 Z"/></g>
<g><path style="opacity:1" fill="#eea1a0" d="M 193.5,53.5 C 193.573,55.0269 192.906,56.0269 191.5,56.5C 191.427,54.9731 192.094,53.9731 193.5,53.5 Z"/></g>
<g><path style="opacity:1" fill="#edeaf2" d="M 240.5,37.5 C 240.5,60.1667 240.5,82.8333 240.5,105.5C 247.5,105.5 254.5,105.5 261.5,105.5C 261.5,104.167 261.5,102.833 261.5,101.5C 262.833,101.5 264.167,101.5 265.5,101.5C 265.5,95.8333 265.5,90.1667 265.5,84.5C 265.833,84.5 266.167,84.5 266.5,84.5C 272.509,84.6662 278.509,84.4995 284.5,84C 286.653,83.9005 288.319,83.0672 289.5,81.5C 290.71,81.0679 291.71,80.4013 292.5,79.5C 294.147,77.6736 296.147,76.3403 298.5,75.5C 299.906,75.0269 300.573,74.0269 300.5,72.5C 302.25,71.3406 303.25,69.674 303.5,67.5C 305.113,62.9932 305.779,58.3266 305.5,53.5C 306.222,53.9175 306.722,54.5842 307,55.5C 307.172,49.3193 307.672,43.3193 308.5,37.5C 308.5,59.8333 308.5,82.1667 308.5,104.5C 306.7,98.2416 305.867,91.575 306,84.5C 297.754,92.7504 288.921,100.25 279.5,107C 271.853,110.843 264.186,114.01 256.5,116.5C 253.5,116.5 250.5,116.5 247.5,116.5C 248.609,115.71 249.942,115.21 251.5,115C 243.179,114.502 236.179,111.335 230.5,105.5C 230.5,104.167 230.5,102.833 230.5,101.5C 231.833,101.5 233.167,101.5 234.5,101.5C 234.5,89.1667 234.5,76.8333 234.5,64.5C 224.5,64.5 214.5,64.5 204.5,64.5C 208.647,63.6753 212.981,63.1753 217.5,63C 216.944,62.6174 216.611,62.1174 216.5,61.5C 220.833,61.5 225.167,61.5 229.5,61.5C 229.5,60.1667 229.5,58.8333 229.5,57.5C 231.483,57.8432 232.817,57.1765 233.5,55.5C 235.5,55.5 237.5,55.5 239.5,55.5C 239.177,49.31 239.51,43.31 240.5,37.5 Z"/></g>
<g><path style="opacity:1" fill="#da5552" d="M 300.5,43.5 C 300.833,43.5 301.167,43.5 301.5,43.5C 303.131,46.6639 304.464,49.9973 305.5,53.5C 305.779,58.3266 305.113,62.9932 303.5,67.5C 303.167,67.5 302.833,67.5 302.5,67.5C 304.254,59.2123 303.587,51.2123 300.5,43.5 Z"/></g>
<g><path style="opacity:1" fill="#201a1a" d="M 280.5,51.5 C 285.867,56.0697 285.534,60.4031 279.5,64.5C 279.664,61.8127 279.497,59.146 279,56.5C 278.617,55.944 278.117,55.6107 277.5,55.5C 277.167,55.5 276.833,55.5 276.5,55.5C 273.375,54.5206 270.042,54.1872 266.5,54.5C 266.5,53.5 266.5,52.5 266.5,51.5C 271.167,51.5 275.833,51.5 280.5,51.5 Z"/></g>
<g><path style="opacity:1" fill="#7e1b1a" d="M 280.5,51.5 C 275.833,51.5 271.167,51.5 266.5,51.5C 266.5,52.5 266.5,53.5 266.5,54.5C 266.167,54.5 265.833,54.5 265.5,54.5C 265.5,53.1667 265.5,51.8333 265.5,50.5C 270.695,50.1795 275.695,50.5128 280.5,51.5 Z"/></g>
<g><path style="opacity:1" fill="#8c1c1c" d="M 244.5,37.5 C 244.833,37.5 245.167,37.5 245.5,37.5C 245.5,58.5 245.5,79.5 245.5,100.5C 251.026,100.179 256.36,100.512 261.5,101.5C 261.167,101.5 260.833,101.5 260.5,101.5C 255.167,101.5 249.833,101.5 244.5,101.5C 244.5,80.5 244.5,59.5 244.5,38.5C 244.5,38.1667 244.5,37.8333 244.5,37.5 Z"/></g>
<g><path style="opacity:1" fill="#0a0101" d="M 244.5,38.5 C 244.5,59.5 244.5,80.5 244.5,101.5C 249.833,101.5 255.167,101.5 260.5,101.5C 254.588,103.456 248.255,104.123 241.5,103.5C 241.5,81.8333 241.5,60.1667 241.5,38.5C 242.5,38.5 243.5,38.5 244.5,38.5 Z"/></g>
<g><path style="opacity:1" fill="#f3c4c4" d="M 295.5,37.5 C 298.5,38.5 300.5,40.5 301.5,43.5C 301.167,43.5 300.833,43.5 300.5,43.5C 298.833,41.5 297.167,39.5 295.5,37.5 Z"/></g>
<g><path style="opacity:1" fill="#ebe6e9" d="M 355.5,45.5 C 354.322,50.5435 352.989,55.5435 351.5,60.5C 350.076,62.5145 349.41,64.8478 349.5,67.5C 349.167,67.5 348.833,67.5 348.5,67.5C 347.593,65.3432 346.927,63.0098 346.5,60.5C 346.634,58.7085 346.301,57.0418 345.5,55.5C 347.527,55.6621 349.527,55.4955 351.5,55C 352.282,51.4062 353.616,48.2395 355.5,45.5 Z"/></g>
<g><path style="opacity:1" fill="#e08485" d="M 232.5,53.5 C 233.338,53.8417 233.672,54.5084 233.5,55.5C 232.817,57.1765 231.483,57.8432 229.5,57.5C 229.167,57.5 228.833,57.5 228.5,57.5C 229.568,56.5655 230.901,56.2322 232.5,56.5C 232.5,55.5 232.5,54.5 232.5,53.5 Z"/></g>
<g><path style="opacity:1" fill="#515052" d="M 240.5,37.5 C 241.833,37.5 243.167,37.5 244.5,37.5C 244.5,37.8333 244.5,38.1667 244.5,38.5C 243.5,38.5 242.5,38.5 241.5,38.5C 241.5,60.1667 241.5,81.8333 241.5,103.5C 248.255,104.123 254.588,103.456 260.5,101.5C 260.833,101.5 261.167,101.5 261.5,101.5C 261.5,102.833 261.5,104.167 261.5,105.5C 254.5,105.5 247.5,105.5 240.5,105.5C 240.5,82.8333 240.5,60.1667 240.5,37.5 Z"/></g>
<g><path style="opacity:1" fill="#3c3b3d" d="M 227.5,57.5 C 227.833,57.5 228.167,57.5 228.5,57.5C 228.5,58.5 228.5,59.5 228.5,60.5C 221.833,60.5 215.167,60.5 208.5,60.5C 208.5,60.1667 208.5,59.8333 208.5,59.5C 215.255,60.1229 221.588,59.4563 227.5,57.5 Z"/></g>
<g><path style="opacity:1" fill="#df706e" d="M 36.5,58.5 C 36.573,60.0269 35.9063,61.0269 34.5,61.5C 34.427,59.9731 35.0937,58.9731 36.5,58.5 Z"/></g>
<g><path style="opacity:1" fill="#b7b6b9" d="M 228.5,57.5 C 228.833,57.5 229.167,57.5 229.5,57.5C 229.5,58.8333 229.5,60.1667 229.5,61.5C 225.167,61.5 220.833,61.5 216.5,61.5C 213.615,61.8064 210.948,61.4731 208.5,60.5C 215.167,60.5 221.833,60.5 228.5,60.5C 228.5,59.5 228.5,58.5 228.5,57.5 Z"/></g>
<g><path style="opacity:1" fill="#191111" d="M 168.5,53.5 C 169.167,53.5 169.833,53.5 170.5,53.5C 168.12,58.3469 167.12,63.5135 167.5,69C 167.04,75.3204 168.373,81.1538 171.5,86.5C 171.427,88.0269 172.094,89.0269 173.5,89.5C 175.806,92.4729 178.473,95.1395 181.5,97.5C 181.973,98.9063 182.973,99.573 184.5,99.5C 187.39,101.733 190.723,103.066 194.5,103.5C 197.5,104.167 200.5,104.833 203.5,105.5C 197.5,106.833 191.5,106.833 185.5,105.5C 183.465,103.805 181.132,102.472 178.5,101.5C 174.096,98.0994 170.429,94.0994 167.5,89.5C 167.573,87.9731 166.906,86.9731 165.5,86.5C 163.562,78.6232 163.062,70.6232 164,62.5C 164.566,60.2774 165.4,58.2774 166.5,56.5C 167.906,56.0269 168.573,55.0269 168.5,53.5 Z"/></g>
<g><path style="opacity:1" fill="#1e1515" d="M 360.5,37.5 C 359.85,39.4352 359.517,41.4352 359.5,43.5C 357.844,49.4126 356.178,55.4126 354.5,61.5C 353.076,63.5145 352.41,65.8478 352.5,68.5C 351.857,70.0764 350.857,71.4097 349.5,72.5C 348.699,70.9582 348.366,69.2915 348.5,67.5C 348.833,67.5 349.167,67.5 349.5,67.5C 350.924,65.4855 351.59,63.1522 351.5,60.5C 352.989,55.5435 354.322,50.5435 355.5,45.5C 356.776,43.4375 357.61,41.1042 358,38.5C 358.671,37.7476 359.504,37.4142 360.5,37.5 Z"/></g>
<g><path style="opacity:1" fill="#c02827" d="M 86.5,63.5 C 86.4833,72.849 86.8167,82.1824 87.5,91.5C 84.1732,92.3321 81.1732,93.8321 78.5,96C 77.5,96.6667 76.5,96.6667 75.5,96C 74.703,92.2546 74.203,88.4213 74,84.5C 73.6174,83.944 73.1174,83.6107 72.5,83.5C 72.5,78.8333 72.5,74.1667 72.5,69.5C 77.3786,67.9444 82.0453,65.9444 86.5,63.5 Z"/></g>
<g><path style="opacity:1" fill="#e5d7de" d="M 266.5,54.5 C 270.042,54.1872 273.375,54.5206 276.5,55.5C 273.5,55.5 270.5,55.5 267.5,55.5C 267.5,58.1667 267.5,60.8333 267.5,63.5C 271.167,63.5 274.833,63.5 278.5,63.5C 278.599,60.7628 278.265,58.0961 277.5,55.5C 278.117,55.6107 278.617,55.944 279,56.5C 279.497,59.146 279.664,61.8127 279.5,64.5C 275.167,64.5 270.833,64.5 266.5,64.5C 266.5,61.1667 266.5,57.8333 266.5,54.5 Z"/></g>
<g><path style="opacity:1" fill="#f6f6fd" d="M 276.5,55.5 C 276.833,55.5 277.167,55.5 277.5,55.5C 278.265,58.0961 278.599,60.7628 278.5,63.5C 274.833,63.5 271.167,63.5 267.5,63.5C 267.5,60.8333 267.5,58.1667 267.5,55.5C 270.5,55.5 273.5,55.5 276.5,55.5 Z"/></g>
<g><path style="opacity:1" fill="#696868" d="M 351.5,60.5 C 351.59,63.1522 350.924,65.4855 349.5,67.5C 349.41,64.8478 350.076,62.5145 351.5,60.5 Z"/></g>
<g><path style="opacity:1" fill="#dd6560" d="M 34.5,61.5 C 34.7593,63.9893 33.7593,65.656 31.5,66.5C 31.7497,64.326 32.7497,62.6594 34.5,61.5 Z"/></g>
<g><path style="opacity:1" fill="#e28f92" d="M 265.5,54.5 C 265.833,54.5 266.167,54.5 266.5,54.5C 266.5,57.8333 266.5,61.1667 266.5,64.5C 270.833,64.5 275.167,64.5 279.5,64.5C 275.03,65.4861 270.363,65.8195 265.5,65.5C 265.5,61.8333 265.5,58.1667 265.5,54.5 Z"/></g>
<g><path style="opacity:1" fill="#7a1919" d="M 354.5,61.5 C 354.59,64.1522 353.924,66.4855 352.5,68.5C 352.41,65.8478 353.076,63.5145 354.5,61.5 Z"/></g>
<g><path style="opacity:1" fill="#b42928" d="M 131.5,53.5 C 136.985,58.4591 140.985,64.4591 143.5,71.5C 143.5,72.1667 143.5,72.8333 143.5,73.5C 143.063,75.0744 142.063,76.2411 140.5,77C 127.695,82.9937 115.029,89.1604 102.5,95.5C 102.771,93.6203 102.104,92.287 100.5,91.5C 99.8857,87.8648 99.5524,84.1981 99.5,80.5C 99.176,73.6457 99.5093,66.979 100.5,60.5C 100.174,64.8839 100.508,69.2172 101.5,73.5C 112.606,68.781 123.272,63.281 133.5,57C 132.177,56.1841 131.511,55.0174 131.5,53.5 Z"/></g>
<g><path style="opacity:1" fill="#d9595a" d="M 204.5,65.5 C 204.5,65.1667 204.5,64.8333 204.5,64.5C 214.5,64.5 224.5,64.5 234.5,64.5C 234.5,76.8333 234.5,89.1667 234.5,101.5C 233.167,101.5 231.833,101.5 230.5,101.5C 231.209,100.596 232.209,100.263 233.5,100.5C 233.5,88.8333 233.5,77.1667 233.5,65.5C 223.833,65.5 214.167,65.5 204.5,65.5 Z"/></g>
<g><path style="opacity:1" fill="#393737" d="M 204.5,67.5 C 204.5,67.8333 204.5,68.1667 204.5,68.5C 203.5,68.5 202.5,68.5 201.5,68.5C 201.5,72.8333 201.5,77.1667 201.5,81.5C 204.385,81.1936 207.052,81.5269 209.5,82.5C 206.5,82.5 203.5,82.5 200.5,82.5C 200.5,77.5 200.5,72.5 200.5,67.5C 201.833,67.5 203.167,67.5 204.5,67.5 Z"/></g>
<g><path style="opacity:1" fill="#7a1919" d="M 367.5,65.5 C 366.992,69.1974 366.326,72.8641 365.5,76.5C 365.167,76.5 364.833,76.5 364.5,76.5C 364.742,72.521 365.742,68.8544 367.5,65.5 Z"/></g>
<g><path style="opacity:1" fill="#6e1616" d="M 369.5,101.5 C 368.833,89.5 368.167,77.5 367.5,65.5C 367.461,64.2438 367.961,63.2438 369,62.5C 369.5,75.4957 369.667,88.4957 369.5,101.5 Z"/></g>
<g><path style="opacity:1" fill="#150707" d="M 204.5,68.5 C 204.5,71.8333 204.5,75.1667 204.5,78.5C 207.797,78.89 210.797,79.89 213.5,81.5C 212.167,82.5 210.833,83.5 209.5,84.5C 209.5,83.8333 209.5,83.1667 209.5,82.5C 207.052,81.5269 204.385,81.1936 201.5,81.5C 201.5,77.1667 201.5,72.8333 201.5,68.5C 202.5,68.5 203.5,68.5 204.5,68.5 Z"/></g>
<g><path style="opacity:1" fill="#dd8489" d="M 302.5,67.5 C 302.833,67.5 303.167,67.5 303.5,67.5C 303.25,69.674 302.25,71.3406 300.5,72.5C 300.893,70.7162 301.559,69.0495 302.5,67.5 Z"/></g>
<g><path style="opacity:1" fill="#f1bcbb" d="M 30.5,68.5 C 29.6693,71.659 28.6693,74.659 27.5,77.5C 27.1376,73.919 28.1376,70.919 30.5,68.5 Z"/></g>
<g><path style="opacity:1" fill="#f1d5d5" d="M 98.5,62.5 C 98.1771,68.69 98.5104,74.69 99.5,80.5C 99.5524,84.1981 99.8857,87.8648 100.5,91.5C 99.2237,89.4375 98.3903,87.1042 98,84.5C 97.1782,76.9882 97.3448,69.6549 98.5,62.5 Z"/></g>
<g><path style="opacity:1" fill="#d67170" d="M 101.5,48.5 C 101.5,50.8333 101.5,53.1667 101.5,55.5C 100.699,57.0418 100.366,58.7085 100.5,60.5C 99.5093,66.979 99.176,73.6457 99.5,80.5C 98.5104,74.69 98.1771,68.69 98.5,62.5C 98.9542,57.5963 99.9542,52.9296 101.5,48.5 Z"/></g>
<g><path style="opacity:1" fill="#f4c9c8" d="M 191.5,56.5 C 188.567,64.9704 188.901,73.3037 192.5,81.5C 186.201,73.4525 185.868,65.1192 191.5,56.5 Z"/></g>
<g><path style="opacity:1" fill="#8d1c1c" d="M 333.5,67.5 C 332.778,67.0825 332.278,66.4158 332,65.5C 331.501,70.4889 331.334,75.4889 331.5,80.5C 331.167,80.5 330.833,80.5 330.5,80.5C 330.171,74.4632 330.504,68.4632 331.5,62.5C 332.95,63.8498 333.617,65.5165 333.5,67.5 Z"/></g>
<g><path style="opacity:1" fill="#331314" d="M 333.5,67.5 C 333.5,68.1667 333.5,68.8333 333.5,69.5C 332.256,74.0352 332.256,78.7019 333.5,83.5C 332.833,83.1667 332.167,82.8333 331.5,82.5C 331.5,81.8333 331.5,81.1667 331.5,80.5C 331.334,75.4889 331.501,70.4889 332,65.5C 332.278,66.4158 332.778,67.0825 333.5,67.5 Z"/></g>
<g><path style="opacity:1" fill="#d16261" d="M 87.5,61.5 C 87.5007,71.5138 87.8341,81.5138 88.5,91.5C 88.1667,91.5 87.8333,91.5 87.5,91.5C 86.8167,82.1824 86.4833,72.849 86.5,63.5C 86.3284,62.5084 86.6618,61.8417 87.5,61.5 Z"/></g>
<g><path style="opacity:1" fill="#731718" d="M 352.5,68.5 C 352.643,70.2624 352.309,71.9291 351.5,73.5C 350.306,74.6704 349.639,74.337 349.5,72.5C 350.857,71.4097 351.857,70.0764 352.5,68.5 Z"/></g>
<g><path style="opacity:1" fill="#e5b9b9" d="M 143.5,71.5 C 144.497,71.4701 145.164,71.9701 145.5,73C 146.566,76.0937 147.232,79.2604 147.5,82.5C 147.167,82.5 146.833,82.5 146.5,82.5C 146.072,79.2154 145.072,76.2154 143.5,73.5C 143.5,72.8333 143.5,72.1667 143.5,71.5 Z"/></g>
<g><path style="opacity:1" fill="#110404" d="M 367.5,65.5 C 368.167,77.5 368.833,89.5 369.5,101.5C 374.167,101.5 378.833,101.5 383.5,101.5C 383.5,102.167 383.5,102.833 383.5,103.5C 377.5,103.5 371.5,103.5 365.5,103.5C 365.5,94.5 365.5,85.5 365.5,76.5C 366.326,72.8641 366.992,69.1974 367.5,65.5 Z"/></g>
<g><path style="opacity:1" fill="#e4a6ae" d="M 300.5,72.5 C 300.573,74.0269 299.906,75.0269 298.5,75.5C 298.427,73.9731 299.094,72.9731 300.5,72.5 Z"/></g>
<g><path style="opacity:1" fill="#0d0605" d="M 333.5,69.5 C 334.291,72.115 334.957,74.7816 335.5,77.5C 335.41,80.1522 336.076,82.4855 337.5,84.5C 337.41,87.1522 338.076,89.4855 339.5,91.5C 340.167,93.8333 340.833,96.1667 341.5,98.5C 341.5,99.8333 341.5,101.167 341.5,102.5C 345.702,102.183 349.702,102.517 353.5,103.5C 347.637,104.243 342.304,103.243 337.5,100.5C 337.768,98.901 337.434,97.5676 336.5,96.5C 336.88,94.302 336.213,92.6354 334.5,91.5C 334.167,88.8333 333.833,86.1667 333.5,83.5C 332.256,78.7019 332.256,74.0352 333.5,69.5 Z"/></g>
<g><path style="opacity:1" fill="#841a1a" d="M 204.5,78.5 C 207.833,78.5 211.167,78.5 214.5,78.5C 214.737,79.791 214.404,80.791 213.5,81.5C 210.797,79.89 207.797,78.89 204.5,78.5 Z"/></g>
<g><path style="opacity:1" fill="#dd6f6e" d="M 43.5,77.5 C 42.962,79.1172 42.6287,80.7839 42.5,82.5C 42.1667,82.5 41.8333,82.5 41.5,82.5C 41.1201,80.302 41.7868,78.6354 43.5,77.5 Z"/></g>
<g><path style="opacity:1" fill="#751818" d="M 285.5,80.5 C 278.935,80.8511 272.601,81.8511 266.5,83.5C 266.5,83.8333 266.5,84.1667 266.5,84.5C 266.167,84.5 265.833,84.5 265.5,84.5C 265.5,83.1667 265.5,81.8333 265.5,80.5C 272.167,80.5 278.833,80.5 285.5,80.5 Z"/></g>
<g><path style="opacity:1" fill="#3c0e0d" d="M 335.5,77.5 C 336.924,79.5145 337.59,81.8478 337.5,84.5C 336.076,82.4855 335.41,80.1522 335.5,77.5 Z"/></g>
<g><path style="opacity:1" fill="#1a1011" d="M 292.5,79.5 C 291.71,80.4013 290.71,81.0679 289.5,81.5C 281.951,83.2016 274.285,83.8683 266.5,83.5C 272.601,81.8511 278.935,80.8511 285.5,80.5C 287.861,80.3259 290.194,79.9926 292.5,79.5 Z"/></g>
<g><path style="opacity:1" fill="#a72625" d="M 143.5,73.5 C 145.072,76.2154 146.072,79.2154 146.5,82.5C 146.789,86.1064 146.456,89.6064 145.5,93C 134.554,97.8061 123.888,103.139 113.5,109C 111.527,109.495 109.527,109.662 107.5,109.5C 107.245,107.033 106.245,105.033 104.5,103.5C 104.233,101.035 103.566,98.7014 102.5,96.5C 102.5,96.1667 102.5,95.8333 102.5,95.5C 115.029,89.1604 127.695,82.9937 140.5,77C 142.063,76.2411 143.063,75.0744 143.5,73.5 Z"/></g>
<g><path style="opacity:1" fill="#87878f" d="M 289.5,81.5 C 288.319,83.0672 286.653,83.9005 284.5,84C 278.509,84.4995 272.509,84.6662 266.5,84.5C 266.5,84.1667 266.5,83.8333 266.5,83.5C 274.285,83.8683 281.951,83.2016 289.5,81.5 Z"/></g>
<g><path style="opacity:1" fill="#c32f2d" d="M 61.5,55.5 C 61.5,64.1667 61.5,72.8333 61.5,81.5C 61.423,85.2148 61.7564,88.8815 62.5,92.5C 58.834,94.5744 55.0007,96.5744 51,98.5C 50.6174,97.944 50.1174,97.6107 49.5,97.5C 48.596,96.791 48.2627,95.791 48.5,94.5C 48.1916,90.6403 47.5249,86.9736 46.5,83.5C 46.5,81.8333 46.5,80.1667 46.5,78.5C 47.1614,79.7175 47.8281,81.0508 48.5,82.5C 51.5544,80.3061 54.8878,78.6395 58.5,77.5C 59.3306,71.1928 59.8306,64.8594 60,58.5C 60.2321,57.2625 60.7321,56.2625 61.5,55.5 Z"/></g>
<g><path style="opacity:1" fill="#e5c8c8" d="M 331.5,82.5 C 332.167,82.8333 332.833,83.1667 333.5,83.5C 333.833,86.1667 334.167,88.8333 334.5,91.5C 333.778,91.0825 333.278,90.4158 333,89.5C 332.824,93.6877 332.324,97.6877 331.5,101.5C 331.5,95.1667 331.5,88.8333 331.5,82.5 Z"/></g>
<g><path style="opacity:1" fill="#360e0c" d="M 337.5,84.5 C 338.924,86.5145 339.59,88.8478 339.5,91.5C 338.076,89.4855 337.41,87.1522 337.5,84.5 Z"/></g>
<g><path style="opacity:1" fill="#d26765" d="M 61.5,81.5 C 62.5249,84.9736 63.1916,88.6403 63.5,92.5C 63.1667,92.5 62.8333,92.5 62.5,92.5C 61.7564,88.8815 61.423,85.2148 61.5,81.5 Z"/></g>
<g><path style="opacity:1" fill="#8f8f8f" d="M 165.5,86.5 C 166.906,86.9731 167.573,87.9731 167.5,89.5C 166.094,89.0269 165.427,88.0269 165.5,86.5 Z"/></g>
<g><path style="opacity:1" fill="#4b0f10" d="M 171.5,86.5 C 172.906,86.9731 173.573,87.9731 173.5,89.5C 172.094,89.0269 171.427,88.0269 171.5,86.5 Z"/></g>
<g><path style="opacity:1" fill="#e28786" d="M 27.5,77.5 C 27.5,80.1667 27.5,82.8333 27.5,85.5C 26.5007,92.0045 26.5007,98.6712 27.5,105.5C 27.5,106.5 27.5,107.5 27.5,108.5C 26.0349,103.41 25.3682,98.0767 25.5,92.5C 25.3343,87.2449 26.001,82.2449 27.5,77.5 Z"/></g>
<g><path style="opacity:1" fill="#ecb1b0" d="M 41.5,82.5 C 41.8333,82.5 42.1667,82.5 42.5,82.5C 42.5,88.8333 42.5,95.1667 42.5,101.5C 42.1667,101.5 41.8333,101.5 41.5,101.5C 40.7081,95.8698 40.3748,90.2031 40.5,84.5C 41.3382,84.1583 41.6716,83.4916 41.5,82.5 Z"/></g>
<g><path style="opacity:1" fill="#e69c9b" d="M 46.5,83.5 C 47.5249,86.9736 48.1916,90.6403 48.5,94.5C 46.783,91.1552 46.1164,87.4885 46.5,83.5 Z"/></g>
<g><path style="opacity:1" fill="#d0908f" d="M 147.5,83.5 C 148.165,86.4815 148.498,89.6482 148.5,93C 148.656,98.0896 147.99,102.923 146.5,107.5C 147.099,99.5136 147.432,91.5136 147.5,83.5 Z"/></g>
<g><path style="opacity:1" fill="#af2d2b" d="M 72.5,83.5 C 73.1174,83.6107 73.6174,83.944 74,84.5C 74.203,88.4213 74.703,92.2546 75.5,96C 76.5,96.6667 77.5,96.6667 78.5,96C 81.1732,93.8321 84.1732,92.3321 87.5,91.5C 87.8333,91.5 88.1667,91.5 88.5,91.5C 90.9697,98.3462 93.303,105.346 95.5,112.5C 95.9707,114.579 96.6373,116.579 97.5,118.5C 97.6309,119.376 97.2975,120.043 96.5,120.5C 93.0638,121.698 89.8971,123.364 87,125.5C 85.3677,123.91 83.8677,122.244 82.5,120.5C 82.1667,119.5 81.5,118.833 80.5,118.5C 80.5,118.167 80.5,117.833 80.5,117.5C 79.5376,113.605 78.2043,109.939 76.5,106.5C 76.4431,105.391 76.1098,104.391 75.5,103.5C 74.4915,98.7171 73.4915,94.0504 72.5,89.5C 72.5,87.5 72.5,85.5 72.5,83.5 Z"/></g>
<g><path style="opacity:1" fill="#eaa1a0" d="M 361.5,88.5 C 361.59,91.1522 360.924,93.4855 359.5,95.5C 359.41,92.8478 360.076,90.5145 361.5,88.5 Z"/></g>
<g><path style="opacity:1" fill="#5a5a5a" d="M 334.5,91.5 C 336.213,92.6354 336.88,94.302 336.5,96.5C 335.463,95.0697 334.796,93.403 334.5,91.5 Z"/></g>
<g><path style="opacity:1" fill="#d8908f" d="M 100.5,91.5 C 102.104,92.287 102.771,93.6203 102.5,95.5C 102.5,95.8333 102.5,96.1667 102.5,96.5C 100.787,95.3646 100.12,93.698 100.5,91.5 Z"/></g>
<g><path style="opacity:1" fill="#e07272" d="M 330.5,80.5 C 330.833,80.5 331.167,80.5 331.5,80.5C 331.5,81.1667 331.5,81.8333 331.5,82.5C 331.5,88.8333 331.5,95.1667 331.5,101.5C 330.167,101.5 328.833,101.5 327.5,101.5C 327.5,101.167 327.5,100.833 327.5,100.5C 328.5,100.5 329.5,100.5 330.5,100.5C 330.5,93.8333 330.5,87.1667 330.5,80.5 Z"/></g>
<g><path style="opacity:1" fill="#efcece" d="M 72.5,89.5 C 73.4915,94.0504 74.4915,98.7171 75.5,103.5C 72.9103,99.3068 71.9103,94.6401 72.5,89.5 Z"/></g>
<g><path style="opacity:1" fill="#711717" d="M 181.5,97.5 C 183.027,97.427 184.027,98.0937 184.5,99.5C 182.973,99.573 181.973,98.9063 181.5,97.5 Z"/></g>
<g><path style="opacity:1" fill="#180504" d="M 229.5,101.5 C 229.5,102.167 229.5,102.833 229.5,103.5C 225.167,103.5 220.833,103.5 216.5,103.5C 216.5,101.833 216.5,100.167 216.5,98.5C 216.811,97.5222 217.478,96.8555 218.5,96.5C 219.452,98.0453 219.785,99.712 219.5,101.5C 222.833,101.5 226.167,101.5 229.5,101.5 Z"/></g>
<g><path style="opacity:1" fill="#9c2827" d="M 146.5,82.5 C 146.833,82.5 147.167,82.5 147.5,82.5C 147.5,82.8333 147.5,83.1667 147.5,83.5C 147.432,91.5136 147.099,99.5136 146.5,107.5C 144.322,113.691 141.655,119.691 138.5,125.5C 137.094,125.973 136.427,126.973 136.5,128.5C 135.662,128.842 135.328,129.508 135.5,130.5C 133.413,131.585 132.08,133.251 131.5,135.5C 129.37,137.127 127.37,138.96 125.5,141C 124.423,141.47 123.423,141.303 122.5,140.5C 122.573,138.973 121.906,137.973 120.5,137.5C 120.573,135.973 119.906,134.973 118.5,134.5C 118.245,132.033 117.245,130.033 115.5,128.5C 115.34,126.847 114.674,125.514 113.5,124.5C 113.245,122.033 112.245,120.033 110.5,118.5C 110.029,116.421 109.363,114.421 108.5,112.5C 108.443,111.391 108.11,110.391 107.5,109.5C 109.527,109.662 111.527,109.495 113.5,109C 123.888,103.139 134.554,97.8061 145.5,93C 146.456,89.6064 146.789,86.1064 146.5,82.5 Z"/></g>
<g><path style="opacity:1" fill="#967978" d="M 212.5,100.5 C 212.842,99.6618 213.508,99.3284 214.5,99.5C 215.338,99.8417 215.672,100.508 215.5,101.5C 214.609,100.89 213.609,100.557 212.5,100.5 Z"/></g>
<g><path style="opacity:1" fill="#db5d5b" d="M 359.5,95.5 C 358.85,97.4352 358.517,99.4352 358.5,101.5C 357.167,101.5 355.833,101.5 354.5,101.5C 355.209,100.596 356.209,100.263 357.5,100.5C 357.077,98.2188 357.744,96.5521 359.5,95.5 Z"/></g>
<g><path style="opacity:1" fill="#2d1213" d="M 341.5,98.5 C 342.404,99.209 342.737,100.209 342.5,101.5C 346.5,101.5 350.5,101.5 354.5,101.5C 354.5,102.167 354.5,102.833 354.5,103.5C 354.167,103.5 353.833,103.5 353.5,103.5C 349.702,102.517 345.702,102.183 341.5,102.5C 341.5,101.167 341.5,99.8333 341.5,98.5 Z"/></g>
<g><path style="opacity:1" fill="#482423" d="M 212.5,100.5 C 209.992,102.924 206.992,104.59 203.5,105.5C 200.5,104.833 197.5,104.167 194.5,103.5C 200.774,103.941 206.774,102.941 212.5,100.5 Z"/></g>
<g><path style="opacity:1" fill="#bd2928" d="M 40.5,84.5 C 40.3748,90.2031 40.7081,95.8698 41.5,101.5C 41.5045,105.534 41.8379,109.534 42.5,113.5C 39.0055,115.221 35.3388,116.555 31.5,117.5C 30.5139,113.887 29.6805,110.221 29,106.5C 28.6174,105.944 28.1174,105.611 27.5,105.5C 26.5007,98.6712 26.5007,92.0045 27.5,85.5C 27.1924,87.924 27.5258,90.2573 28.5,92.5C 31.5544,90.3061 34.8878,88.6395 38.5,87.5C 39.1757,86.3984 39.8423,85.3984 40.5,84.5 Z"/></g>
<g><path style="opacity:1" fill="#b42d2b" d="M 62.5,92.5 C 62.8333,92.5 63.1667,92.5 63.5,92.5C 65.0132,100.217 66.6798,107.884 68.5,115.5C 68.5,117.5 68.5,119.5 68.5,121.5C 64.9925,123.161 61.3258,124.494 57.5,125.5C 56.7789,121.731 55.4455,118.398 53.5,115.5C 53.2766,111.838 52.2766,108.505 50.5,105.5C 49.9084,102.873 49.5751,100.206 49.5,97.5C 50.1174,97.6107 50.6174,97.944 51,98.5C 55.0007,96.5744 58.834,94.5744 62.5,92.5 Z"/></g>
<g><path style="opacity:1" fill="#363434" d="M 214.5,99.5 C 214.842,98.6618 215.508,98.3284 216.5,98.5C 216.5,100.167 216.5,101.833 216.5,103.5C 220.833,103.5 225.167,103.5 229.5,103.5C 225.03,104.486 220.363,104.819 215.5,104.5C 215.5,103.5 215.5,102.5 215.5,101.5C 215.672,100.508 215.338,99.8417 214.5,99.5 Z"/></g>
<g><path style="opacity:1" fill="#333333" d="M 337.5,100.5 C 342.304,103.243 347.637,104.243 353.5,103.5C 348.695,104.487 343.695,104.821 338.5,104.5C 338.167,103.167 337.833,101.833 337.5,100.5 Z"/></g>
<g><path style="opacity:1" fill="#3e3d3d" d="M 364.5,76.5 C 364.833,76.5 365.167,76.5 365.5,76.5C 365.5,85.5 365.5,94.5 365.5,103.5C 371.5,103.5 377.5,103.5 383.5,103.5C 377.355,104.49 371.022,104.823 364.5,104.5C 364.5,95.5 364.5,86.5 364.5,77.5C 364.5,77.1667 364.5,76.8333 364.5,76.5 Z"/></g>
<g><path style="opacity:1" fill="#8d8d8d" d="M 178.5,101.5 C 181.132,102.472 183.465,103.805 185.5,105.5C 182.379,105.264 180.046,103.931 178.5,101.5 Z"/></g>
<g><path style="opacity:1" fill="#8f8e8f" d="M 229.5,101.5 C 229.833,101.5 230.167,101.5 230.5,101.5C 230.5,102.833 230.5,104.167 230.5,105.5C 225.305,105.821 220.305,105.487 215.5,104.5C 220.363,104.819 225.03,104.486 229.5,103.5C 229.5,102.833 229.5,102.167 229.5,101.5 Z"/></g>
<g><path style="opacity:1" fill="#929191" d="M 326.5,101.5 C 326.833,101.5 327.167,101.5 327.5,101.5C 327.5,102.833 327.5,104.167 327.5,105.5C 320.978,105.823 314.645,105.49 308.5,104.5C 314.69,104.823 320.69,104.49 326.5,103.5C 326.5,102.833 326.5,102.167 326.5,101.5 Z"/></g>
<g><path style="opacity:1" fill="#999999" d="M 353.5,103.5 C 353.833,103.5 354.167,103.5 354.5,103.5C 352.257,104.812 349.59,105.478 346.5,105.5C 343.645,105.497 340.978,105.164 338.5,104.5C 343.695,104.821 348.695,104.487 353.5,103.5 Z"/></g>
<g><path style="opacity:1" fill="#939292" d="M 383.5,101.5 C 383.833,101.5 384.167,101.5 384.5,101.5C 384.5,102.833 384.5,104.167 384.5,105.5C 377.646,105.824 370.979,105.491 364.5,104.5C 371.022,104.823 377.355,104.49 383.5,103.5C 383.5,102.833 383.5,102.167 383.5,101.5 Z"/></g>
<g><path style="opacity:1" fill="#e2a3a2" d="M 50.5,105.5 C 52.2766,108.505 53.2766,111.838 53.5,115.5C 51.7234,112.495 50.7234,109.162 50.5,105.5 Z"/></g>
<g><path style="opacity:1" fill="#cc8281" d="M 104.5,103.5 C 106.245,105.033 107.245,107.033 107.5,109.5C 108.11,110.391 108.443,111.391 108.5,112.5C 106.416,109.947 105.083,106.947 104.5,103.5 Z"/></g>
<g><path style="opacity:1" fill="#c8514f" d="M 27.5,105.5 C 28.1174,105.611 28.6174,105.944 29,106.5C 29.6805,110.221 30.5139,113.887 31.5,117.5C 31.5,117.833 31.5,118.167 31.5,118.5C 29.8631,115.283 28.5298,111.95 27.5,108.5C 27.5,107.5 27.5,106.5 27.5,105.5 Z"/></g>
<g><path style="opacity:1" fill="#cb6260" d="M 41.5,101.5 C 41.8333,101.5 42.1667,101.5 42.5,101.5C 43.1667,106.5 43.8333,111.5 44.5,116.5C 43.8333,115.5 43.1667,114.5 42.5,113.5C 41.8379,109.534 41.5045,105.534 41.5,101.5 Z"/></g>
<g><path style="opacity:1" fill="#373638" d="M 320.5,114.5 C 319.048,113.698 317.382,113.198 315.5,113C 317.134,112.506 318.801,112.34 320.5,112.5C 322.446,112.193 324.113,112.193 325.5,112.5C 324.468,115.193 322.802,115.86 320.5,114.5 Z"/></g>
<g><path style="opacity:1" fill="#5d5c5e" d="M 315.5,111.5 C 317.415,111.216 319.081,111.549 320.5,112.5C 318.801,112.34 317.134,112.506 315.5,113C 317.382,113.198 319.048,113.698 320.5,114.5C 318.409,114.318 316.409,114.652 314.5,115.5C 313.702,115.043 313.369,114.376 313.5,113.5C 313.833,112.5 314.5,111.833 315.5,111.5 Z"/></g>
<g><path style="opacity:1" fill="#ebcac9" d="M 76.5,106.5 C 78.2043,109.939 79.5376,113.605 80.5,117.5C 79.5416,117.047 78.7083,116.381 78,115.5C 77.304,112.522 76.804,109.522 76.5,106.5 Z"/></g>
<g><path style="opacity:1" fill="#d0cfd0" d="M 183.5,116.5 C 180.167,116.5 176.833,116.5 173.5,116.5C 174.152,115.275 175.319,114.608 177,114.5C 179.484,114.497 181.651,115.163 183.5,116.5 Z"/></g>
<g><path style="opacity:1" fill="#cac9ca" d="M 315.5,111.5 C 319.351,110.191 323.351,110.191 327.5,111.5C 326.544,113.075 325.877,114.742 325.5,116.5C 321.102,116.294 316.768,116.627 312.5,117.5C 312.232,115.901 312.566,114.568 313.5,113.5C 313.369,114.376 313.702,115.043 314.5,115.5C 316.409,114.652 318.409,114.318 320.5,114.5C 322.802,115.86 324.468,115.193 325.5,112.5C 324.113,112.193 322.446,112.193 320.5,112.5C 319.081,111.549 317.415,111.216 315.5,111.5 Z"/></g>
<g><path style="opacity:1" fill="#d0d0d0" d="M 382.5,116.5 C 379.167,116.5 375.833,116.5 372.5,116.5C 373.152,115.275 374.319,114.608 376,114.5C 378.484,114.497 380.651,115.163 382.5,116.5 Z"/></g>
<g><path style="opacity:1" fill="#e5c1c0" d="M 146.5,107.5 C 146.065,114.569 143.398,120.569 138.5,125.5C 141.655,119.691 144.322,113.691 146.5,107.5 Z"/></g>
<g><path style="opacity:1" fill="#4b4a4c" d="M 173.5,116.5 C 176.833,116.5 180.167,116.5 183.5,116.5C 183.833,117.167 184.167,117.833 184.5,118.5C 179.167,117.167 173.833,117.167 168.5,118.5C 169.635,116.787 171.302,116.12 173.5,116.5 Z"/></g>
<g><path style="opacity:1" fill="#4b4a4c" d="M 372.5,116.5 C 375.833,116.5 379.167,116.5 382.5,116.5C 382.833,117.167 383.167,117.833 383.5,118.5C 378.167,117.167 372.833,117.167 367.5,118.5C 368.635,116.787 370.302,116.12 372.5,116.5 Z"/></g>
<g><path style="opacity:1" fill="#c67977" d="M 95.5,112.5 C 97.2451,114.033 98.2451,116.033 98.5,118.5C 98.1667,118.5 97.8333,118.5 97.5,118.5C 96.6373,116.579 95.9707,114.579 95.5,112.5 Z"/></g>
<g><path style="opacity:1" fill="#201e20" d="M 184.5,118.5 C 185.5,118.833 186.167,119.5 186.5,120.5C 186.414,121.496 186.748,122.329 187.5,123C 184.854,123.497 182.187,123.664 179.5,123.5C 177.735,122.539 175.735,122.205 173.5,122.5C 173.33,123.822 173.663,124.989 174.5,126C 176.813,126.662 179.146,127.162 181.5,127.5C 182.287,129.104 183.62,129.771 185.5,129.5C 185.5,130.167 185.833,130.5 186.5,130.5C 187.324,133.764 187.658,137.098 187.5,140.5C 186.833,141.833 185.833,142.833 184.5,143.5C 179.833,144.833 175.167,144.833 170.5,143.5C 169.833,143.167 169.167,142.833 168.5,142.5C 167.833,141.167 166.833,140.167 165.5,139.5C 165.5,139.167 165.5,138.833 165.5,138.5C 170.267,138.034 174.934,138.034 179.5,138.5C 180.776,137.614 180.776,136.614 179.5,135.5C 175.975,133.77 172.309,132.436 168.5,131.5C 165.644,128.376 164.811,124.709 166,120.5C 166.708,119.619 167.542,118.953 168.5,118.5C 173.833,117.167 179.167,117.167 184.5,118.5 Z"/></g>
<g><path style="opacity:1" fill="#211f22" d="M 218.5,138.5 C 216.738,139.262 215.738,140.596 215.5,142.5C 213.833,143.167 212.167,143.833 210.5,144.5C 206.434,144.693 202.434,144.36 198.5,143.5C 195.068,142.401 193.068,140.067 192.5,136.5C 192.283,131.77 192.617,127.103 193.5,122.5C 195.004,120.164 197.004,118.331 199.5,117C 208.152,114.392 214.652,116.892 219,124.5C 219.648,129.204 219.481,133.871 218.5,138.5 Z"/></g>
<g><path style="opacity:1" fill="#d8d8d8" d="M 274.5,116.5 C 275.321,119.641 275.821,122.975 276,126.5C 276.2,124.68 277.034,123.347 278.5,122.5C 277.962,124.117 277.629,125.784 277.5,127.5C 276.532,129.607 276.198,131.941 276.5,134.5C 275.833,135.5 275.167,136.5 274.5,137.5C 274.5,130.5 274.5,123.5 274.5,116.5 Z"/></g>
<g><path style="opacity:1" fill="#242225" d="M 303.5,124.5 C 301.365,126.369 298.698,127.036 295.5,126.5C 294.833,125.5 294.167,124.5 293.5,123.5C 292.903,122.861 292.07,122.528 291,122.5C 289.301,122.387 288.134,123.053 287.5,124.5C 286.883,124.611 286.383,124.944 286,125.5C 285.195,128.696 285.362,131.696 286.5,134.5C 287.524,138.347 289.857,139.347 293.5,137.5C 294.425,136.643 295.092,135.643 295.5,134.5C 298.167,134.5 300.833,134.5 303.5,134.5C 303.5,135.5 303.5,136.5 303.5,137.5C 303.5,137.833 303.5,138.167 303.5,138.5C 302.094,138.973 301.427,139.973 301.5,141.5C 300.833,141.5 300.5,141.833 300.5,142.5C 297.514,142.903 294.848,143.903 292.5,145.5C 292.821,147.048 293.821,147.715 295.5,147.5C 295.634,149.292 295.301,150.958 294.5,152.5C 291.833,152.5 289.167,152.5 286.5,152.5C 286.369,151.624 286.702,150.957 287.5,150.5C 289.071,151.309 290.738,151.643 292.5,151.5C 292.715,149.821 292.048,148.821 290.5,148.5C 290.5,147.167 290.5,145.833 290.5,144.5C 288.435,144.483 286.435,144.15 284.5,143.5C 281.5,142.5 279.5,140.5 278.5,137.5C 277.676,134.236 277.342,130.902 277.5,127.5C 277.629,125.784 277.962,124.117 278.5,122.5C 280.004,120.164 282.004,118.331 284.5,117C 293.213,114.26 299.547,116.76 303.5,124.5 Z"/></g>
<g><path style="opacity:1" fill="#494749" d="M 325.5,116.5 C 326.71,116.932 327.71,117.599 328.5,118.5C 322.197,116.756 316.197,117.423 310.5,120.5C 310.782,119.222 311.449,118.222 312.5,117.5C 316.768,116.627 321.102,116.294 325.5,116.5 Z"/></g>
<g><path style="opacity:1" fill="#222022" d="M 328.5,118.5 C 328.973,119.906 329.973,120.573 331.5,120.5C 333.025,122.216 334.025,124.216 334.5,126.5C 334.5,129.167 334.5,131.833 334.5,134.5C 334.107,136.284 333.441,137.95 332.5,139.5C 330.5,140.833 328.833,142.5 327.5,144.5C 323.035,145.736 318.701,145.736 314.5,144.5C 314.027,143.094 313.027,142.427 311.5,142.5C 307.91,139.419 306.243,135.419 306.5,130.5C 306.102,126.34 307.435,123.007 310.5,120.5C 316.197,117.423 322.197,116.756 328.5,118.5 Z"/></g>
<g><path style="opacity:1" fill="#dddcdd" d="M 337.5,116.5 C 337.5,125.833 337.5,135.167 337.5,144.5C 336.676,140.688 336.176,136.688 336,132.5C 335.722,133.416 335.222,134.082 334.5,134.5C 334.5,131.833 334.5,129.167 334.5,126.5C 335.117,126.611 335.617,126.944 336,127.5C 336.177,123.644 336.677,119.977 337.5,116.5 Z"/></g>
<g><path style="opacity:1" fill="#211f22" d="M 383.5,118.5 C 384.5,118.833 385.167,119.5 385.5,120.5C 385.414,121.496 385.748,122.329 386.5,123C 383.854,123.497 381.187,123.664 378.5,123.5C 376.735,122.539 374.735,122.205 372.5,122.5C 372.167,125.5 373.5,126.833 376.5,126.5C 380.297,128.112 383.963,130.112 387.5,132.5C 388.756,134.726 388.756,137.059 387.5,139.5C 386.086,141.918 384.086,143.585 381.5,144.5C 377.131,144.533 372.798,144.2 368.5,143.5C 361.382,137.188 362.715,135.188 372.5,137.5C 374.011,139.441 376.011,139.941 378.5,139C 379.764,136.226 378.764,134.726 375.5,134.5C 372.433,133.317 369.433,131.983 366.5,130.5C 364.732,127.838 364.065,124.838 364.5,121.5C 365.167,120.167 366.167,119.167 367.5,118.5C 372.833,117.167 378.167,117.167 383.5,118.5 Z"/></g>
<g><path style="opacity:1" fill="#1a181b" d="M 231.5,118.5 C 231.177,125.022 231.51,131.355 232.5,137.5C 235.962,138.482 239.629,138.815 243.5,138.5C 243.5,140.167 243.5,141.833 243.5,143.5C 237.167,143.5 230.833,143.5 224.5,143.5C 224.5,135.167 224.5,126.833 224.5,118.5C 226.833,118.5 229.167,118.5 231.5,118.5 Z"/></g>
<g><path style="opacity:1" fill="#69676a" d="M 223.5,117.5 C 226.287,116.523 229.287,116.19 232.5,116.5C 232.5,123.5 232.5,130.5 232.5,137.5C 231.51,131.355 231.177,125.022 231.5,118.5C 229.052,117.527 226.385,117.194 223.5,117.5 Z"/></g>
<g><path style="opacity:1" fill="#d2d1d2" d="M 232.5,116.5 C 233.491,122.979 233.824,129.646 233.5,136.5C 237.371,136.185 241.038,136.518 244.5,137.5C 240.5,137.5 236.5,137.5 232.5,137.5C 232.5,130.5 232.5,123.5 232.5,116.5 Z"/></g>
<g><path style="opacity:1" fill="#1d1b1e" d="M 256.5,136.5 C 259.604,139.388 262.271,139.055 264.5,135.5C 264.833,135.5 265.167,135.5 265.5,135.5C 266.489,130.025 266.822,124.358 266.5,118.5C 268.5,118.5 270.5,118.5 272.5,118.5C 272.5,125.5 272.5,132.5 272.5,139.5C 271.109,141.89 269.109,143.557 266.5,144.5C 261.797,144.563 257.13,144.229 252.5,143.5C 250.806,142.473 249.473,141.139 248.5,139.5C 248.5,138.833 248.5,138.167 248.5,137.5C 248.5,130.833 248.5,124.167 248.5,117.5C 250.833,117.5 253.167,117.5 255.5,117.5C 255.177,124.022 255.51,130.355 256.5,136.5 Z"/></g>
<g><path style="opacity:1" fill="#59585a" d="M 247.5,116.5 C 250.5,116.5 253.5,116.5 256.5,116.5C 256.5,123.167 256.5,129.833 256.5,136.5C 255.51,130.355 255.177,124.022 255.5,117.5C 253.167,117.5 250.833,117.5 248.5,117.5C 248.5,124.167 248.5,130.833 248.5,137.5C 247.509,130.687 247.175,123.687 247.5,116.5 Z"/></g>
<g><path style="opacity:1" fill="#353335" d="M 273.5,137.5 C 273.672,138.492 273.338,139.158 272.5,139.5C 272.5,132.5 272.5,125.5 272.5,118.5C 270.5,118.5 268.5,118.5 266.5,118.5C 266.822,124.358 266.489,130.025 265.5,135.5C 265.5,129.5 265.5,123.5 265.5,117.5C 268.167,117.5 270.833,117.5 273.5,117.5C 273.5,124.167 273.5,130.833 273.5,137.5 Z"/></g>
<g><path style="opacity:1" fill="#898789" d="M 274.5,116.5 C 274.5,123.5 274.5,130.5 274.5,137.5C 274.167,137.5 273.833,137.5 273.5,137.5C 273.5,130.833 273.5,124.167 273.5,117.5C 270.833,117.5 268.167,117.5 265.5,117.5C 265.5,123.5 265.5,129.5 265.5,135.5C 265.167,135.5 264.833,135.5 264.5,135.5C 264.5,129.167 264.5,122.833 264.5,116.5C 267.833,116.5 271.167,116.5 274.5,116.5 Z"/></g>
<g><path style="opacity:1" fill="#949394" d="M 328.5,118.5 C 330.027,118.427 331.027,119.094 331.5,120.5C 329.973,120.573 328.973,119.906 328.5,118.5 Z"/></g>
<g><path style="opacity:1" fill="#939293" d="M 337.5,116.5 C 345.5,116.5 353.5,116.5 361.5,116.5C 361.802,119.059 361.468,121.393 360.5,123.5C 360.795,121.265 360.461,119.265 359.5,117.5C 352.5,117.5 345.5,117.5 338.5,117.5C 338.5,126.5 338.5,135.5 338.5,144.5C 338.167,144.5 337.833,144.5 337.5,144.5C 337.5,135.167 337.5,125.833 337.5,116.5 Z"/></g>
<g><path style="opacity:1" fill="#363437" d="M 359.5,117.5 C 359.5,117.833 359.5,118.167 359.5,118.5C 352.833,118.5 346.167,118.5 339.5,118.5C 339.5,126.833 339.5,135.167 339.5,143.5C 346.5,143.5 353.5,143.5 360.5,143.5C 360.5,143.833 360.5,144.167 360.5,144.5C 353.167,144.5 345.833,144.5 338.5,144.5C 338.5,135.5 338.5,126.5 338.5,117.5C 345.5,117.5 352.5,117.5 359.5,117.5 Z"/></g>
<g><path style="opacity:1" fill="#1a181b" d="M 359.5,118.5 C 359.5,119.833 359.5,121.167 359.5,122.5C 354.706,121.903 350.373,122.57 346.5,124.5C 346.5,125.5 346.5,126.5 346.5,127.5C 349.962,128.482 353.629,128.815 357.5,128.5C 357.5,129.833 357.5,131.167 357.5,132.5C 353.958,132.187 350.625,132.521 347.5,133.5C 345.16,134.572 344.827,136.239 346.5,138.5C 351.12,139.493 355.786,139.827 360.5,139.5C 360.5,140.833 360.5,142.167 360.5,143.5C 353.5,143.5 346.5,143.5 339.5,143.5C 339.5,135.167 339.5,126.833 339.5,118.5C 346.167,118.5 352.833,118.5 359.5,118.5 Z"/></g>
<g><path style="opacity:1" fill="#c56663" d="M 53.5,115.5 C 55.4455,118.398 56.7789,121.731 57.5,125.5C 57.5,126.5 57.5,127.5 57.5,128.5C 55.7211,124.406 54.3877,120.073 53.5,115.5 Z"/></g>
<g><path style="opacity:1" fill="#a42928" d="M 68.5,115.5 C 69.9313,116.78 70.5979,118.447 70.5,120.5C 70.9707,122.579 71.6373,124.579 72.5,126.5C 72.6917,129.601 73.3584,132.601 74.5,135.5C 70.9424,138.392 66.9424,140.392 62.5,141.5C 62.6716,140.508 62.3382,139.842 61.5,139.5C 60.6618,139.158 60.3284,138.492 60.5,137.5C 60.0652,134.843 59.0652,132.509 57.5,130.5C 57.5,129.833 57.5,129.167 57.5,128.5C 57.5,127.5 57.5,126.5 57.5,125.5C 61.3258,124.494 64.9925,123.161 68.5,121.5C 68.5,119.5 68.5,117.5 68.5,115.5 Z"/></g>
<g><path style="opacity:1" fill="#e2adac" d="M 31.5,120.5 C 32.9063,120.973 33.573,121.973 33.5,123.5C 32.0937,123.027 31.427,122.027 31.5,120.5 Z"/></g>
<g><path style="opacity:1" fill="#af2f2d" d="M 42.5,113.5 C 43.1667,114.5 43.8333,115.5 44.5,116.5C 45.9897,121.459 47.323,126.459 48.5,131.5C 48.5111,133.547 48.8444,135.547 49.5,137.5C 49.1667,138.167 48.8333,138.833 48.5,139.5C 47.5832,138.873 46.5832,138.539 45.5,138.5C 40.74,134.077 36.74,129.077 33.5,123.5C 33.573,121.973 32.9063,120.973 31.5,120.5C 31.5,119.833 31.5,119.167 31.5,118.5C 31.5,118.167 31.5,117.833 31.5,117.5C 35.3388,116.555 39.0055,115.221 42.5,113.5 Z"/></g>
<g><path style="opacity:1" fill="#d8a09f" d="M 70.5,120.5 C 72.2451,122.033 73.2451,124.033 73.5,126.5C 73.1667,126.5 72.8333,126.5 72.5,126.5C 71.6373,124.579 70.9707,122.579 70.5,120.5 Z"/></g>
<g><path style="opacity:1" fill="#d7a2a1" d="M 99.5,120.5 C 100.906,120.973 101.573,121.973 101.5,123.5C 100.094,123.027 99.427,122.027 99.5,120.5 Z"/></g>
<g><path style="opacity:1" fill="#828082" d="M 293.5,123.5 C 291.435,123.517 289.435,123.85 287.5,124.5C 288.134,123.053 289.301,122.387 291,122.5C 292.07,122.528 292.903,122.861 293.5,123.5 Z"/></g>
<g><path style="opacity:1" fill="#535153" d="M 359.5,117.5 C 360.461,119.265 360.795,121.265 360.5,123.5C 355.968,123.182 351.634,123.515 347.5,124.5C 347.167,124.5 346.833,124.5 346.5,124.5C 350.373,122.57 354.706,121.903 359.5,122.5C 359.5,121.167 359.5,119.833 359.5,118.5C 359.5,118.167 359.5,117.833 359.5,117.5 Z"/></g>
<g><path style="opacity:1" fill="#d19392" d="M 80.5,118.5 C 81.5,118.833 82.1667,119.5 82.5,120.5C 82.8333,121.833 83.1667,123.167 83.5,124.5C 81.7549,122.967 80.7549,120.967 80.5,118.5 Z"/></g>
<g><path style="opacity:1" fill="#dcb1b0" d="M 110.5,118.5 C 112.245,120.033 113.245,122.033 113.5,124.5C 111.755,122.967 110.755,120.967 110.5,118.5 Z"/></g>
<g><path style="opacity:1" fill="#656365" d="M 186.5,120.5 C 188.213,121.635 188.88,123.302 188.5,125.5C 185.813,125.664 183.146,125.497 180.5,125C 179.944,124.617 179.611,124.117 179.5,123.5C 182.187,123.664 184.854,123.497 187.5,123C 186.748,122.329 186.414,121.496 186.5,120.5 Z"/></g>
<g><path style="opacity:1" fill="#a8a8a8" d="M 208.5,124.5 C 206.5,124.5 204.5,124.5 202.5,124.5C 204.5,121.833 206.5,121.833 208.5,124.5 Z"/></g>
<g><path style="opacity:1" fill="#a8a8a8" d="M 323.5,124.5 C 321.5,124.5 319.5,124.5 317.5,124.5C 319.5,121.833 321.5,121.833 323.5,124.5 Z"/></g>
<g><path style="opacity:1" fill="#535153" d="M 385.5,120.5 C 387.104,121.287 387.771,122.62 387.5,124.5C 384.287,124.81 381.287,124.477 378.5,123.5C 381.187,123.664 383.854,123.497 386.5,123C 385.748,122.329 385.414,121.496 385.5,120.5 Z"/></g>
<g><path style="opacity:1" fill="#9d2c2a" d="M 97.5,118.5 C 97.8333,118.5 98.1667,118.5 98.5,118.5C 99.3382,118.842 99.6716,119.508 99.5,120.5C 99.427,122.027 100.094,123.027 101.5,123.5C 105.755,131.009 109.755,138.676 113.5,146.5C 113.218,147.778 112.551,148.778 111.5,149.5C 109.5,150.5 107.5,151.5 105.5,152.5C 102.212,152.984 99.5452,151.984 97.5,149.5C 97.573,147.973 96.9063,146.973 95.5,146.5C 94.1535,144.463 92.8202,142.463 91.5,140.5C 90.8897,138.566 89.8897,136.899 88.5,135.5C 86.3737,132.041 84.707,128.374 83.5,124.5C 83.1667,123.167 82.8333,121.833 82.5,120.5C 83.8677,122.244 85.3677,123.91 87,125.5C 89.8971,123.364 93.0638,121.698 96.5,120.5C 97.2975,120.043 97.6309,119.376 97.5,118.5 Z"/></g>
<g><path style="opacity:1" fill="#f6f6f6" d="M 202.5,124.5 C 204.5,124.5 206.5,124.5 208.5,124.5C 209.167,124.5 209.5,124.833 209.5,125.5C 210.833,129.167 210.833,132.833 209.5,136.5C 206.526,139.309 203.859,138.976 201.5,135.5C 201.323,131.766 201.656,128.099 202.5,124.5 Z"/></g>
<g><path style="opacity:1" fill="#f4f4f4" d="M 317.5,124.5 C 319.5,124.5 321.5,124.5 323.5,124.5C 324.167,124.5 324.5,124.833 324.5,125.5C 325.324,128.764 325.658,132.098 325.5,135.5C 321.13,139.907 317.797,139.24 315.5,133.5C 315.21,130.215 315.877,127.215 317.5,124.5 Z"/></g>
<g><path style="opacity:1" fill="#5d5b5d" d="M 303.5,124.5 C 304.404,125.209 304.737,126.209 304.5,127.5C 301.287,127.81 298.287,127.477 295.5,126.5C 298.698,127.036 301.365,126.369 303.5,124.5 Z"/></g>
<g><path style="opacity:1" fill="#b3b2b3" d="M 346.5,124.5 C 346.833,124.5 347.167,124.5 347.5,124.5C 350.891,126.125 354.558,127.125 358.5,127.5C 354.5,127.5 350.5,127.5 346.5,127.5C 346.5,126.5 346.5,125.5 346.5,124.5 Z"/></g>
<g><path style="opacity:1" fill="#cbcacb" d="M 378.5,123.5 C 381.287,124.477 384.287,124.81 387.5,124.5C 385.031,125.317 382.365,125.817 379.5,126C 380.056,126.383 380.389,126.883 380.5,127.5C 379.167,127.167 377.833,126.833 376.5,126.5C 373.5,126.833 372.167,125.5 372.5,122.5C 374.735,122.205 376.735,122.539 378.5,123.5 Z"/></g>
<g><path style="opacity:1" fill="#cf9594" d="M 138.5,125.5 C 138.573,127.027 137.906,128.027 136.5,128.5C 136.427,126.973 137.094,125.973 138.5,125.5 Z"/></g>
<g><path style="opacity:1" fill="#434144" d="M 346.5,127.5 C 350.5,127.5 354.5,127.5 358.5,127.5C 358.5,129.5 358.5,131.5 358.5,133.5C 354.833,133.5 351.167,133.5 347.5,133.5C 350.625,132.521 353.958,132.187 357.5,132.5C 357.5,131.167 357.5,129.833 357.5,128.5C 353.629,128.815 349.962,128.482 346.5,127.5 Z"/></g>
<g><path style="opacity:1" fill="#6f6e70" d="M 181.5,127.5 C 183.153,127.66 184.486,128.326 185.5,129.5C 183.62,129.771 182.287,129.104 181.5,127.5 Z"/></g>
<g><path style="opacity:1" fill="#706f71" d="M 193.5,122.5 C 192.617,127.103 192.283,131.77 192.5,136.5C 191.883,136.389 191.383,136.056 191,135.5C 190.333,132.167 190.333,128.833 191,125.5C 191.377,124.058 192.21,123.058 193.5,122.5 Z"/></g>
<g><path style="opacity:1" fill="#767577" d="M 376.5,126.5 C 377.833,126.833 379.167,127.167 380.5,127.5C 384.107,127.565 386.44,129.231 387.5,132.5C 383.963,130.112 380.297,128.112 376.5,126.5 Z"/></g>
<g><path style="opacity:1" fill="#7a787a" d="M 209.5,125.5 C 210.117,125.611 210.617,125.944 211,126.5C 211.667,129.5 211.667,132.5 211,135.5C 210.617,136.056 210.117,136.389 209.5,136.5C 210.833,132.833 210.833,129.167 209.5,125.5 Z"/></g>
<g><path style="opacity:1" fill="#9a999a" d="M 287.5,124.5 C 286.676,127.764 286.342,131.098 286.5,134.5C 285.362,131.696 285.195,128.696 286,125.5C 286.383,124.944 286.883,124.611 287.5,124.5 Z"/></g>
<g><path style="opacity:1" fill="#909091" d="M 317.5,124.5 C 315.877,127.215 315.21,130.215 315.5,133.5C 314.371,131.372 314.204,129.039 315,126.5C 315.708,125.619 316.542,124.953 317.5,124.5 Z"/></g>
<g><path style="opacity:1" fill="#686769" d="M 324.5,125.5 C 325.117,125.611 325.617,125.944 326,126.5C 326.805,129.696 326.638,132.696 325.5,135.5C 325.658,132.098 325.324,128.764 324.5,125.5 Z"/></g>
<g><path style="opacity:1" fill="#9f9f9f" d="M 364.5,121.5 C 364.065,124.838 364.732,127.838 366.5,130.5C 365.504,130.586 364.671,130.252 364,129.5C 363.199,126.633 363.366,123.966 364.5,121.5 Z"/></g>
<g><path style="opacity:1" fill="#b0afb0" d="M 202.5,124.5 C 201.656,128.099 201.323,131.766 201.5,135.5C 200.102,134.223 199.436,132.557 199.5,130.5C 199.467,127.898 200.467,125.898 202.5,124.5 Z"/></g>
<g><path style="opacity:1" fill="#e6c2c1" d="M 57.5,130.5 C 59.0652,132.509 60.0652,134.843 60.5,137.5C 58.1663,135.824 57.1663,133.491 57.5,130.5 Z"/></g>
<g><path style="opacity:1" fill="#e0b8b7" d="M 115.5,128.5 C 117.245,130.033 118.245,132.033 118.5,134.5C 116.755,132.967 115.755,130.967 115.5,128.5 Z"/></g>
<g><path style="opacity:1" fill="#dbaead" d="M 135.5,130.5 C 134.92,132.749 133.587,134.415 131.5,135.5C 132.08,133.251 133.413,131.585 135.5,130.5 Z"/></g>
<g><path style="opacity:1" fill="#919091" d="M 295.5,134.5 C 298.287,133.523 301.287,133.19 304.5,133.5C 304.768,135.099 304.434,136.432 303.5,137.5C 303.5,136.5 303.5,135.5 303.5,134.5C 300.833,134.5 298.167,134.5 295.5,134.5 Z"/></g>
<g><path style="opacity:1" fill="#d39a99" d="M 75.5,133.5 C 76.9063,133.973 77.573,134.973 77.5,136.5C 76.0937,136.027 75.427,135.027 75.5,133.5 Z"/></g>
<g><path style="opacity:1" fill="#b4b3b4" d="M 375.5,134.5 C 378.764,134.726 379.764,136.226 378.5,139C 376.011,139.941 374.011,139.441 372.5,137.5C 374.239,138.434 375.905,138.434 377.5,137.5C 376.388,136.735 375.721,135.735 375.5,134.5 Z"/></g>
<g><path style="opacity:1" fill="#9d2d2a" d="M 72.5,126.5 C 72.8333,126.5 73.1667,126.5 73.5,126.5C 74.1667,128.833 74.8333,131.167 75.5,133.5C 75.427,135.027 76.0937,136.027 77.5,136.5C 78.1098,137.391 78.4431,138.391 78.5,139.5C 78.9925,141.819 79.9925,143.819 81.5,145.5C 81.5,146.167 81.5,146.833 81.5,147.5C 81.427,149.027 82.0937,150.027 83.5,150.5C 84.3382,150.842 84.6716,151.508 84.5,152.5C 84.38,153.586 83.7133,154.253 82.5,154.5C 79.2169,153.673 75.8835,153.34 72.5,153.5C 67.9571,152.111 64.9571,149.111 63.5,144.5C 63.4431,143.391 63.1098,142.391 62.5,141.5C 66.9424,140.392 70.9424,138.392 74.5,135.5C 73.3584,132.601 72.6917,129.601 72.5,126.5 Z"/></g>
<g><path style="opacity:1" fill="#4e4d4f" d="M 179.5,138.5 C 174.934,138.034 170.267,138.034 165.5,138.5C 164.957,138.44 164.624,138.107 164.5,137.5C 166,137.167 167.5,136.833 169,136.5C 172.432,137.416 175.932,138.083 179.5,138.5 Z"/></g>
<g><path style="opacity:1" fill="#494749" d="M 186.5,130.5 C 190.104,133.469 190.438,136.802 187.5,140.5C 187.658,137.098 187.324,133.764 186.5,130.5 Z"/></g>
<g><path style="opacity:1" fill="#9d9c9d" d="M 277.5,127.5 C 277.342,130.902 277.676,134.236 278.5,137.5C 276.952,137.179 276.285,136.179 276.5,134.5C 276.198,131.941 276.532,129.607 277.5,127.5 Z"/></g>
<g><path style="opacity:1" fill="#d1d1d1" d="M 247.5,116.5 C 247.175,123.687 247.509,130.687 248.5,137.5C 248.5,138.167 248.5,138.833 248.5,139.5C 247.167,141.167 245.833,142.833 244.5,144.5C 244.5,142.167 244.5,139.833 244.5,137.5C 246.151,130.726 247.151,123.726 247.5,116.5 Z"/></g>
<g><path style="opacity:1" fill="#888689" d="M 347.5,137.5 C 352.167,137.5 356.833,137.5 361.5,137.5C 361.802,140.059 361.468,142.393 360.5,144.5C 360.5,144.167 360.5,143.833 360.5,143.5C 360.5,142.167 360.5,140.833 360.5,139.5C 356.167,138.833 351.833,138.167 347.5,137.5 Z"/></g>
<g><path style="opacity:1" fill="#e6c4c3" d="M 88.5,135.5 C 89.8897,136.899 90.8897,138.566 91.5,140.5C 89.2407,139.656 88.2407,137.989 88.5,135.5 Z"/></g>
<g><path style="opacity:1" fill="#3e3d3f" d="M 347.5,133.5 C 347.5,134.833 347.5,136.167 347.5,137.5C 351.833,138.167 356.167,138.833 360.5,139.5C 355.786,139.827 351.12,139.493 346.5,138.5C 344.827,136.239 345.16,134.572 347.5,133.5 Z"/></g>
<g><path style="opacity:1" fill="#b04743" d="M 48.5,131.5 C 50.7248,135.623 52.7248,139.956 54.5,144.5C 53.9984,145.521 53.3317,145.688 52.5,145C 49.7121,143.281 47.3788,141.115 45.5,138.5C 46.5832,138.539 47.5832,138.873 48.5,139.5C 48.8333,138.833 49.1667,138.167 49.5,137.5C 48.8444,135.547 48.5111,133.547 48.5,131.5 Z"/></g>
<g><path style="opacity:1" fill="#dbacac" d="M 120.5,137.5 C 121.906,137.973 122.573,138.973 122.5,140.5C 121.094,140.027 120.427,139.027 120.5,137.5 Z"/></g>
<g><path style="opacity:1" fill="#969697" d="M 303.5,138.5 C 303.573,140.027 302.906,141.027 301.5,141.5C 301.427,139.973 302.094,138.973 303.5,138.5 Z"/></g>
<g><path style="opacity:1" fill="#8f8d8e" d="M 165.5,139.5 C 166.833,140.167 167.833,141.167 168.5,142.5C 166.5,142.5 165.5,141.5 165.5,139.5 Z"/></g>
<g><path style="opacity:1" fill="#a3a2a3" d="M 218.5,138.5 C 218.262,140.404 217.262,141.738 215.5,142.5C 215.738,140.596 216.738,139.262 218.5,138.5 Z"/></g>
<g><path style="opacity:1" fill="#e1baba" d="M 78.5,139.5 C 80.539,140.911 81.539,142.911 81.5,145.5C 79.9925,143.819 78.9925,141.819 78.5,139.5 Z"/></g>
<g><path style="opacity:1" fill="#d49b9a" d="M 61.5,139.5 C 62.3382,139.842 62.6716,140.508 62.5,141.5C 63.1098,142.391 63.4431,143.391 63.5,144.5C 61.7868,143.365 61.1201,141.698 61.5,139.5 Z"/></g>
<g><path style="opacity:1" fill="#403f41" d="M 223.5,117.5 C 226.385,117.194 229.052,117.527 231.5,118.5C 229.167,118.5 226.833,118.5 224.5,118.5C 224.5,126.833 224.5,135.167 224.5,143.5C 230.833,143.5 237.167,143.5 243.5,143.5C 243.5,141.833 243.5,140.167 243.5,138.5C 239.629,138.815 235.962,138.482 232.5,137.5C 236.5,137.5 240.5,137.5 244.5,137.5C 244.5,139.833 244.5,142.167 244.5,144.5C 237.5,144.5 230.5,144.5 223.5,144.5C 223.5,135.5 223.5,126.5 223.5,117.5 Z"/></g>
<g><path style="opacity:1" fill="#7f7e80" d="M 311.5,142.5 C 313.027,142.427 314.027,143.094 314.5,144.5C 312.973,144.573 311.973,143.906 311.5,142.5 Z"/></g>
<g><path style="opacity:1" fill="#b3b2b3" d="M 332.5,139.5 C 331.833,142.167 330.167,143.833 327.5,144.5C 328.833,142.5 330.5,140.833 332.5,139.5 Z"/></g>
<g><path style="opacity:1" fill="#bdbcbd" d="M 387.5,139.5 C 387.167,143.167 385.167,145.167 381.5,145.5C 381.5,145.167 381.5,144.833 381.5,144.5C 384.086,143.585 386.086,141.918 387.5,139.5 Z"/></g>
<g><path style="opacity:1" fill="#656466" d="M 170.5,143.5 C 175.167,144.833 179.833,144.833 184.5,143.5C 184.389,144.117 184.056,144.617 183.5,145C 179.5,145.667 175.5,145.667 171.5,145C 170.944,144.617 170.611,144.117 170.5,143.5 Z"/></g>
<g><path style="opacity:1" fill="#626163" d="M 198.5,143.5 C 202.434,144.36 206.434,144.693 210.5,144.5C 207.024,145.643 203.358,145.81 199.5,145C 198.944,144.617 198.611,144.117 198.5,143.5 Z"/></g>
<g><path style="opacity:1" fill="#636163" d="M 252.5,143.5 C 257.13,144.229 261.797,144.563 266.5,144.5C 264.696,145.162 262.696,145.495 260.5,145.5C 257.473,145.713 254.807,145.047 252.5,143.5 Z"/></g>
<g><path style="opacity:1" fill="#7e7d7f" d="M 284.5,143.5 C 286.435,144.15 288.435,144.483 290.5,144.5C 290.5,145.833 290.5,147.167 290.5,148.5C 290.167,148.5 289.833,148.5 289.5,148.5C 289.5,147.5 289.5,146.5 289.5,145.5C 287.302,145.88 285.635,145.213 284.5,143.5 Z"/></g>
<g><path style="opacity:1" fill="#6f6e6f" d="M 300.5,142.5 C 300.027,143.906 299.027,144.573 297.5,144.5C 295.883,145.038 294.216,145.371 292.5,145.5C 294.848,143.903 297.514,142.903 300.5,142.5 Z"/></g>
<g><path style="opacity:1" fill="#595759" d="M 368.5,143.5 C 372.798,144.2 377.131,144.533 381.5,144.5C 381.5,144.833 381.5,145.167 381.5,145.5C 377.818,145.665 374.152,145.499 370.5,145C 369.584,144.722 368.918,144.222 368.5,143.5 Z"/></g>
<g><path style="opacity:1" fill="#cecdce" d="M 297.5,144.5 C 297.232,147.618 296.232,150.284 294.5,152.5C 295.301,150.958 295.634,149.292 295.5,147.5C 293.821,147.715 292.821,147.048 292.5,145.5C 294.216,145.371 295.883,145.038 297.5,144.5 Z"/></g>
<g><path style="opacity:1" fill="#dbadac" d="M 95.5,146.5 C 96.9063,146.973 97.573,147.973 97.5,149.5C 96.0937,149.027 95.427,148.027 95.5,146.5 Z"/></g>
<g><path style="opacity:1" fill="#c47d7b" d="M 113.5,146.5 C 114.404,147.209 114.737,148.209 114.5,149.5C 113.5,149.5 112.5,149.5 111.5,149.5C 112.551,148.778 113.218,147.778 113.5,146.5 Z"/></g>
<g><path style="opacity:1" fill="#c17674" d="M 81.5,147.5 C 82.9063,147.973 83.573,148.973 83.5,150.5C 82.0937,150.027 81.427,149.027 81.5,147.5 Z"/></g>
<g><path style="opacity:1" fill="#c8c7c8" d="M 289.5,148.5 C 289.833,148.5 290.167,148.5 290.5,148.5C 292.048,148.821 292.715,149.821 292.5,151.5C 290.738,151.643 289.071,151.309 287.5,150.5C 286.702,150.957 286.369,151.624 286.5,152.5C 285.596,151.791 285.263,150.791 285.5,149.5C 286.959,149.567 288.292,149.234 289.5,148.5 Z"/></g>
<g><path style="opacity:1" fill="#e4c1c0" d="M 97.5,149.5 C 99.5452,151.984 102.212,152.984 105.5,152.5C 101.558,155.517 98.8911,154.517 97.5,149.5 Z"/></g>
<g><path style="opacity:1" fill="#ca8887" d="M 84.5,152.5 C 85.404,153.209 85.7373,154.209 85.5,155.5C 80.9515,155.376 76.6181,154.709 72.5,153.5C 75.8835,153.34 79.2169,153.673 82.5,154.5C 83.7133,154.253 84.38,153.586 84.5,152.5 Z"/></g>
<g><path style="opacity:1" fill="#a0a0a0" d="M 166.5,160.5 C 168.607,159.532 170.941,159.198 173.5,159.5C 173.719,160.675 173.386,161.675 172.5,162.5C 171.893,162.376 171.56,162.043 171.5,161.5C 170.708,160.482 169.041,160.149 166.5,160.5 Z"/></g>
<g><path style="opacity:1" fill="#828182" d="M 283.5,169.5 C 285.148,167.544 285.815,165.211 285.5,162.5C 283.833,162.5 282.167,162.5 280.5,162.5C 282.231,161.793 283.897,160.793 285.5,159.5C 286.487,162.768 286.82,166.102 286.5,169.5C 285.5,169.5 284.5,169.5 283.5,169.5 Z"/></g>
<g><path style="opacity:1" fill="#777777" d="M 181.5,163.5 C 182.598,164.397 182.598,165.23 181.5,166C 180.167,166.333 178.833,166.667 177.5,167C 181.456,168.114 181.456,168.947 177.5,169.5C 173.305,166.277 173.639,163.61 178.5,161.5C 180.038,161.453 181.038,162.12 181.5,163.5 Z"/></g>
<g><path style="opacity:1" fill="#cccccc" d="M 261.5,161.5 C 259.692,162.918 259.025,164.918 259.5,167.5C 258.833,167.5 258.167,167.5 257.5,167.5C 257.5,165.833 257.5,164.167 257.5,162.5C 256.5,162.5 255.5,162.5 254.5,162.5C 255.152,161.275 256.319,160.608 258,160.5C 259.385,160.514 260.551,160.848 261.5,161.5 Z"/></g>
<g><path style="opacity:1" fill="#646464" d="M 210.5,164.5 C 210.567,165.959 210.234,167.292 209.5,168.5C 207.099,170.062 205.099,169.729 203.5,167.5C 203.5,166.167 203.5,164.833 203.5,163.5C 206.148,160.738 208.481,161.071 210.5,164.5 Z"/></g>
<g><path style="opacity:1" fill="#d5d5d5" d="M 269.5,162.5 C 268.624,162.369 267.957,162.702 267.5,163.5C 268.246,164.736 268.579,166.07 268.5,167.5C 267.833,168.167 267.167,168.833 266.5,169.5C 264.5,170.833 262.5,170.833 260.5,169.5C 261.376,169.631 262.043,169.298 262.5,168.5C 261.689,167.784 261.022,166.95 260.5,166C 261.148,164.56 261.481,163.06 261.5,161.5C 263.048,161.179 263.715,160.179 263.5,158.5C 264.833,158.5 266.167,158.5 267.5,158.5C 267.527,160.199 268.194,161.533 269.5,162.5 Z"/></g>
<g><path style="opacity:1" fill="#5b5b5b" d="M 279.5,162.5 C 279.833,162.5 280.167,162.5 280.5,162.5C 282.167,162.5 283.833,162.5 285.5,162.5C 285.815,165.211 285.148,167.544 283.5,169.5C 282.5,169.5 281.5,169.5 280.5,169.5C 278.27,167.465 277.937,165.132 279.5,162.5 Z"/></g>
<g><path style="opacity:1" fill="#737373" d="M 301.5,160.5 C 301.56,159.957 301.893,159.624 302.5,159.5C 303.487,162.768 303.82,166.102 303.5,169.5C 301.473,169.662 299.473,169.495 297.5,169C 294.325,164.292 295.658,161.459 301.5,160.5 Z"/></g>
<g><path style="opacity:1" fill="#3e3e3e" d="M 301.5,160.5 C 302.8,163.024 302.8,165.691 301.5,168.5C 300.893,168.376 300.56,168.043 300.5,167.5C 301.833,166.5 301.833,165.5 300.5,164.5C 300.833,163.167 301.167,161.833 301.5,160.5 Z"/></g>
<g><path style="opacity:1" fill="#5a5a5a" d="M 346.5,163.5 C 346.5,165.167 346.5,166.833 346.5,168.5C 344.744,167.448 344.077,165.781 344.5,163.5C 343.209,163.737 342.209,163.404 341.5,162.5C 343.455,161.07 345.121,161.403 346.5,163.5 Z"/></g>
<g><path style="opacity:1" fill="#6c6c6c" d="M 372.5,161.5 C 373.959,161.433 375.292,161.766 376.5,162.5C 377.833,164.833 377.833,167.167 376.5,169.5C 374.833,169.5 373.167,169.5 371.5,169.5C 370.766,168.292 370.433,166.959 370.5,165.5C 374.971,165.328 375.304,164.494 371.5,163C 372.056,162.617 372.389,162.117 372.5,161.5 Z"/></g>
<g><path style="opacity:1" fill="#d4d3d4" d="M 201.5,163.5 C 200.115,162.426 198.949,161.093 198,159.5C 197.691,160.766 197.191,161.933 196.5,163C 200.304,164.494 199.971,165.328 195.5,165.5C 195.5,166.5 195.5,167.5 195.5,168.5C 194.739,169.391 193.739,170.058 192.5,170.5C 191.287,170.253 190.62,169.586 190.5,168.5C 191.575,169.562 192.575,169.562 193.5,168.5C 192.626,166.253 192.292,163.92 192.5,161.5C 193.496,161.414 194.329,161.748 195,162.5C 195.613,158.682 197.613,157.682 201,159.5C 201.49,160.793 201.657,162.127 201.5,163.5 Z"/></g>
<g><path style="opacity:1" fill="#c1c1c1" d="M 201.5,163.5 C 202.167,163.5 202.833,163.5 203.5,163.5C 203.5,164.833 203.5,166.167 203.5,167.5C 202.833,167.833 202.167,168.167 201.5,168.5C 201.5,166.833 201.5,165.167 201.5,163.5 Z"/></g>
<g><path style="opacity:1" fill="#595959" d="M 225.5,161.5 C 225.634,163.292 225.301,164.958 224.5,166.5C 222.508,166.328 220.842,166.995 219.5,168.5C 218.516,165.572 218.183,162.572 218.5,159.5C 220.527,159.338 222.527,159.505 224.5,160C 225.056,160.383 225.389,160.883 225.5,161.5 Z"/></g>
<g><path style="opacity:1" fill="#c8c8c8" d="M 220.5,161.5 C 222.346,161.222 223.68,161.889 224.5,163.5C 223.68,165.111 222.346,165.778 220.5,165.5C 220.5,164.167 220.5,162.833 220.5,161.5 Z"/></g>
<g><path style="opacity:1" fill="#4b4b4b" d="M 261.5,161.5 C 261.481,163.06 261.148,164.56 260.5,166C 261.022,166.95 261.689,167.784 262.5,168.5C 262.043,169.298 261.376,169.631 260.5,169.5C 260.167,168.833 259.833,168.167 259.5,167.5C 259.025,164.918 259.692,162.918 261.5,161.5 Z"/></g>
<g><path style="opacity:1" fill="#5e5e5e" d="M 323.5,165.5 C 321.956,165.297 320.622,164.63 319.5,163.5C 318.614,164.325 318.281,165.325 318.5,166.5C 319.718,167.161 321.051,167.828 322.5,168.5C 318.046,169.883 316.213,168.217 317,163.5C 320.197,160.62 322.364,161.287 323.5,165.5 Z"/></g>
<g><path style="opacity:1" fill="#646464" d="M 328.5,160.5 C 330.973,160.736 332.64,162.069 333.5,164.5C 334.766,162.596 336.433,161.263 338.5,160.5C 338.664,163.187 338.497,165.854 338,168.5C 337.781,167.062 337.281,165.729 336.5,164.5C 335.702,164.957 335.369,165.624 335.5,166.5C 334.609,167.11 333.609,167.443 332.5,167.5C 332.631,166.624 332.298,165.957 331.5,165.5C 330.833,166.5 330.167,167.5 329.5,168.5C 328.52,165.914 328.187,163.247 328.5,160.5 Z"/></g>
<g><path style="opacity:1" fill="#606060" d="M 349.5,169.5 C 348.735,166.904 348.401,164.237 348.5,161.5C 350.093,160.133 351.426,160.466 352.5,162.5C 351.167,164.5 351.167,166.5 352.5,168.5C 351.675,169.386 350.675,169.719 349.5,169.5 Z"/></g>
<g><path style="opacity:1" fill="#6c6c6c" d="M 382.5,169.5 C 382.881,168.069 383.881,167.236 385.5,167C 383.137,166.411 382.137,164.911 382.5,162.5C 384.166,161.334 385.833,161.334 387.5,162.5C 386.5,163.167 385.5,163.833 384.5,164.5C 389.974,167.911 389.307,169.578 382.5,169.5 Z"/></g>
<g><path style="opacity:1" fill="#cbcbcb" d="M 68.5,165.5 C 68.8417,164.662 69.5084,164.328 70.5,164.5C 78.2989,164.025 85.9656,164.692 93.5,166.5C 94.8333,172.5 94.8333,178.5 93.5,184.5C 92.4777,184.855 91.811,185.522 91.5,186.5C 82.9832,186.826 74.6499,186.493 66.5,185.5C 69.8333,185.5 73.1667,185.5 76.5,185.5C 79.5,185.5 82.5,185.5 85.5,185.5C 85.5,178.833 85.5,172.167 85.5,165.5C 82.5,165.5 79.5,165.5 76.5,165.5C 73.8333,165.5 71.1667,165.5 68.5,165.5 Z"/></g>
<g><path style="opacity:1" fill="#e0e0e0" d="M 70.5,164.5 C 81.156,163.017 91.8227,163.684 102.5,166.5C 103.496,172.463 103.829,178.463 103.5,184.5C 99.5568,185.486 95.5568,186.152 91.5,186.5C 91.811,185.522 92.4777,184.855 93.5,184.5C 94.8333,178.5 94.8333,172.5 93.5,166.5C 85.9656,164.692 78.2989,164.025 70.5,164.5 Z"/></g>
<g><path style="opacity:1" fill="#696969" d="M 184.5,161.5 C 187.896,161.633 188.229,162.633 185.5,164.5C 186.993,165.141 187.993,166.141 188.5,167.5C 187.365,169.213 185.698,169.88 183.5,169.5C 183.881,168.069 184.881,167.236 186.5,167C 184.137,166.411 183.137,164.911 183.5,162.5C 184.167,162.5 184.5,162.167 184.5,161.5 Z"/></g>
<g><path style="opacity:1" fill="#c6c5c6" d="M 184.5,161.5 C 187.167,160.167 189.833,160.167 192.5,161.5C 190.692,162.918 190.025,164.918 190.5,167.5C 189.833,167.5 189.167,167.5 188.5,167.5C 187.993,166.141 186.993,165.141 185.5,164.5C 188.229,162.633 187.896,161.633 184.5,161.5 Z"/></g>
<g><path style="opacity:1" fill="#575757" d="M 192.5,161.5 C 192.292,163.92 192.626,166.253 193.5,168.5C 192.575,169.562 191.575,169.562 190.5,168.5C 190.5,168.167 190.5,167.833 190.5,167.5C 190.025,164.918 190.692,162.918 192.5,161.5 Z"/></g>
<g><path style="opacity:1" fill="#c2c2c2" d="M 225.5,161.5 C 226.167,161.833 226.833,162.167 227.5,162.5C 227.201,164.604 227.534,166.604 228.5,168.5C 229.172,167.051 229.839,165.718 230.5,164.5C 230.5,166.167 230.5,167.833 230.5,169.5C 229.167,169.5 227.833,169.5 226.5,169.5C 226.715,167.821 226.048,166.821 224.5,166.5C 225.301,164.958 225.634,163.292 225.5,161.5 Z"/></g>
<g><path style="opacity:1" fill="#595959" d="M 227.5,162.5 C 229.179,162.285 230.179,162.952 230.5,164.5C 229.839,165.718 229.172,167.051 228.5,168.5C 227.534,166.604 227.201,164.604 227.5,162.5 Z"/></g>
<g><path style="opacity:1" fill="#b0b0b0" d="M 227.5,162.5 C 227.917,161.876 228.584,161.543 229.5,161.5C 230.867,162.225 232.2,162.892 233.5,163.5C 232.766,164.708 232.433,166.041 232.5,167.5C 231.833,166.5 231.167,165.5 230.5,164.5C 230.179,162.952 229.179,162.285 227.5,162.5 Z"/></g>
<g><path style="opacity:1" fill="#7f7f7f" d="M 266.5,169.5 C 265.275,168.848 264.608,167.681 264.5,166C 264.667,164.833 264.833,163.667 265,162.5C 266.352,164.594 266.852,166.927 266.5,169.5 Z"/></g>
<g><path style="opacity:1" fill="#707070" d="M 269.5,162.5 C 269.5,163.5 269.5,164.5 269.5,165.5C 270.5,165.5 271.5,165.5 272.5,165.5C 272.5,164.5 272.5,163.5 272.5,162.5C 273.376,162.369 274.043,162.702 274.5,163.5C 273.873,164.417 273.539,165.417 273.5,166.5C 272.284,169.894 270.617,170.228 268.5,167.5C 268.579,166.07 268.246,164.736 267.5,163.5C 267.957,162.702 268.624,162.369 269.5,162.5 Z"/></g>
<g><path style="opacity:1" fill="#727272" d="M 288.5,161.5 C 293.815,161.497 295.815,164.164 294.5,169.5C 292.5,169.5 290.5,169.5 288.5,169.5C 288.5,168.167 288.5,166.833 288.5,165.5C 289.675,165.719 290.675,165.386 291.5,164.5C 290.007,163.859 289.007,162.859 288.5,161.5 Z"/></g>
<g><path style="opacity:1" fill="#606060" d="M 311.5,163.5 C 311.631,164.376 311.298,165.043 310.5,165.5C 309.742,164.189 308.742,163.689 307.5,164C 306.209,165.292 306.209,166.458 307.5,167.5C 308.675,167.281 309.675,167.614 310.5,168.5C 305.733,170.182 303.899,168.515 305,163.5C 307.156,160.939 309.323,160.939 311.5,163.5 Z"/></g>
<g><path style="opacity:1" fill="#969696" d="M 311.5,163.5 C 312.404,164.209 312.737,165.209 312.5,166.5C 310.585,166.216 308.919,166.549 307.5,167.5C 306.209,166.458 306.209,165.292 307.5,164C 308.742,163.689 309.742,164.189 310.5,165.5C 311.298,165.043 311.631,164.376 311.5,163.5 Z"/></g>
<g><path style="opacity:1" fill="#979797" d="M 323.5,165.5 C 322.081,166.451 320.415,166.784 318.5,166.5C 318.281,165.325 318.614,164.325 319.5,163.5C 320.622,164.63 321.956,165.297 323.5,165.5 Z"/></g>
<g><path style="opacity:1" fill="#606060" d="M 360.5,163.5 C 360.631,164.376 360.298,165.043 359.5,165.5C 358.742,164.189 357.742,163.689 356.5,164C 355.209,165.292 355.209,166.458 356.5,167.5C 357.675,167.281 358.675,167.614 359.5,168.5C 354.733,170.182 352.899,168.515 354,163.5C 356.156,160.939 358.323,160.939 360.5,163.5 Z"/></g>
<g><path style="opacity:1" fill="#ababab" d="M 362.5,162.5 C 362.338,164.527 362.505,166.527 363,168.5C 363.21,166.942 363.71,165.609 364.5,164.5C 364.5,166.167 364.5,167.833 364.5,169.5C 363.5,169.5 362.5,169.5 361.5,169.5C 361.5,168.5 361.5,167.5 361.5,166.5C 359.585,166.216 357.919,166.549 356.5,167.5C 355.209,166.458 355.209,165.292 356.5,164C 357.742,163.689 358.742,164.189 359.5,165.5C 360.298,165.043 360.631,164.376 360.5,163.5C 361.167,163.167 361.833,162.833 362.5,162.5 Z"/></g>
<g><path style="opacity:1" fill="#cdcdcd" d="M 372.5,161.5 C 372.389,162.117 372.056,162.617 371.5,163C 375.304,164.494 374.971,165.328 370.5,165.5C 370.433,166.959 370.766,168.292 371.5,169.5C 369.833,169.5 368.167,169.5 366.5,169.5C 366.784,167.585 366.451,165.919 365.5,164.5C 365.179,162.952 364.179,162.285 362.5,162.5C 363.568,161.566 364.901,161.232 366.5,161.5C 366.5,160.5 366.5,159.5 366.5,158.5C 367.833,158.5 369.167,158.5 370.5,158.5C 370.285,160.179 370.952,161.179 372.5,161.5 Z"/></g>
<g><path style="opacity:1" fill="#737373" d="M 367.5,162.5 C 368.693,162.97 369.36,163.97 369.5,165.5C 369.167,166.5 368.833,167.5 368.5,168.5C 367.534,166.604 367.201,164.604 367.5,162.5 Z"/></g>
<g><path style="opacity:1" fill="#8b8b8a" d="M 62.5,166.5 C 65.8333,166.5 69.1667,166.5 72.5,166.5C 72.5,172.5 72.5,178.5 72.5,184.5C 69.2869,184.81 66.2869,184.477 63.5,183.5C 65.4461,178.604 66.1128,173.271 65.5,167.5C 61.1829,167.083 57.1829,167.75 53.5,169.5C 52.1667,169.5 50.8333,169.5 49.5,169.5C 53.4054,167.124 57.7387,166.124 62.5,166.5 Z"/></g>
<g><path style="opacity:1" fill="#a4a3a2" d="M 62.5,166.5 C 64.2646,165.539 66.2646,165.205 68.5,165.5C 71.1667,165.5 73.8333,165.5 76.5,165.5C 77.8333,172.167 77.8333,178.833 76.5,185.5C 73.1667,185.5 69.8333,185.5 66.5,185.5C 62.5752,185.57 58.9085,184.903 55.5,183.5C 58.1667,183.5 60.8333,183.5 63.5,183.5C 66.2869,184.477 69.2869,184.81 72.5,184.5C 72.5,178.5 72.5,172.5 72.5,166.5C 69.1667,166.5 65.8333,166.5 62.5,166.5 Z"/></g>
<g><path style="opacity:1" fill="#b7b7b6" d="M 76.5,165.5 C 79.5,165.5 82.5,165.5 85.5,165.5C 85.5,172.167 85.5,178.833 85.5,185.5C 82.5,185.5 79.5,185.5 76.5,185.5C 77.8333,178.833 77.8333,172.167 76.5,165.5 Z"/></g>
<g><path style="opacity:1" fill="#d7d7d7" d="M 204.5,164.5 C 205.833,164.5 207.167,164.5 208.5,164.5C 208.5,165.5 208.5,166.5 208.5,167.5C 207.167,167.5 205.833,167.5 204.5,167.5C 204.5,166.5 204.5,165.5 204.5,164.5 Z"/></g>
<g><path style="opacity:1" fill="#d5d5d5" d="M 280.5,164.5 C 281.833,164.5 283.167,164.5 284.5,164.5C 284.5,165.5 284.5,166.5 284.5,167.5C 283.167,167.5 281.833,167.5 280.5,167.5C 280.5,166.5 280.5,165.5 280.5,164.5 Z"/></g>
<g><path style="opacity:1" fill="#d3d3d3" d="M 300.5,164.5 C 301.833,165.5 301.833,166.5 300.5,167.5C 299.5,167.5 298.5,167.5 297.5,167.5C 297.5,166.5 297.5,165.5 297.5,164.5C 298.5,164.5 299.5,164.5 300.5,164.5 Z"/></g>
<g><path style="opacity:1" fill="#c7c7c7" d="M 328.5,160.5 C 328.187,163.247 328.52,165.914 329.5,168.5C 330.167,167.5 330.833,166.5 331.5,165.5C 332.298,165.957 332.631,166.624 332.5,167.5C 331.221,168.968 329.554,169.635 327.5,169.5C 327.19,166.287 327.523,163.287 328.5,160.5 Z"/></g>
<g><path style="opacity:1" fill="#484848" d="M 362.5,162.5 C 364.179,162.285 365.179,162.952 365.5,164.5C 365.167,164.5 364.833,164.5 364.5,164.5C 363.71,165.609 363.21,166.942 363,168.5C 362.505,166.527 362.338,164.527 362.5,162.5 Z"/></g>
<g><path style="opacity:1" fill="#6e6e6e" d="M 201.5,163.5 C 201.5,165.167 201.5,166.833 201.5,168.5C 199.5,169.833 197.5,169.833 195.5,168.5C 195.5,167.5 195.5,166.5 195.5,165.5C 199.971,165.328 200.304,164.494 196.5,163C 197.191,161.933 197.691,160.766 198,159.5C 198.949,161.093 200.115,162.426 201.5,163.5 Z"/></g>
<g><path style="opacity:1" fill="#676767" d="M 232.5,167.5 C 232.433,166.041 232.766,164.708 233.5,163.5C 233.866,162.305 234.699,161.639 236,161.5C 237.333,162.167 238.667,162.833 240,163.5C 242.545,162.262 245.045,160.929 247.5,159.5C 250.811,168.49 248.311,171.157 240,167.5C 237.367,169.973 234.867,169.973 232.5,167.5 Z"/></g>
<g><path style="opacity:1" fill="#d2d2d2" d="M 242.5,164.5 C 243.833,164.5 245.167,164.5 246.5,164.5C 246.5,165.5 246.5,166.5 246.5,167.5C 245.167,167.5 243.833,167.5 242.5,167.5C 242.5,166.5 242.5,165.5 242.5,164.5 Z"/></g>
<g><path style="opacity:1" fill="#e8e8e8" d="M 234.5,164.5 C 235.5,164.5 236.5,164.5 237.5,164.5C 237.5,165.5 237.5,166.5 237.5,167.5C 236.5,167.5 235.5,167.5 234.5,167.5C 234.5,166.5 234.5,165.5 234.5,164.5 Z"/></g>
<g><path style="opacity:1" fill="#d8d8d8" d="M 279.5,162.5 C 277.937,165.132 278.27,167.465 280.5,169.5C 278.5,169.5 276.5,169.5 274.5,169.5C 274.737,168.209 274.404,167.209 273.5,166.5C 273.539,165.417 273.873,164.417 274.5,163.5C 274.043,162.702 273.376,162.369 272.5,162.5C 273.478,159.675 275.478,158.342 278.5,158.5C 278.232,160.099 278.566,161.432 279.5,162.5 Z"/></g>
<g><path style="opacity:1" fill="#707070" d="M 275.5,162.5 C 276.693,162.97 277.36,163.97 277.5,165.5C 277.167,166.5 276.833,167.5 276.5,168.5C 275.534,166.604 275.201,164.604 275.5,162.5 Z"/></g>
<g><path style="opacity:1" fill="#bfbfbf" d="M 338.5,160.5 C 339.167,162.5 339.833,164.5 340.5,166.5C 340.5,166.833 340.5,167.167 340.5,167.5C 339.533,168.806 338.199,169.473 336.5,169.5C 336.737,168.209 336.404,167.209 335.5,166.5C 335.369,165.624 335.702,164.957 336.5,164.5C 337.281,165.729 337.781,167.062 338,168.5C 338.497,165.854 338.664,163.187 338.5,160.5 Z"/></g>
<g><path style="opacity:1" fill="#6b6b6a" d="M 63.5,183.5 C 60.8333,183.5 58.1667,183.5 55.5,183.5C 53.1124,182.651 50.7791,181.651 48.5,180.5C 50.861,180.674 53.1944,181.007 55.5,181.5C 56.0894,177.029 55.4228,173.029 53.5,169.5C 57.1829,167.75 61.1829,167.083 65.5,167.5C 66.1128,173.271 65.4461,178.604 63.5,183.5 Z"/></g>
<g><path style="opacity:1" fill="#656465" d="M 166.5,160.5 C 169.041,160.149 170.708,160.482 171.5,161.5C 167.932,161.759 166.599,163.759 167.5,167.5C 168.833,167.5 170.167,167.5 171.5,167.5C 171.281,166.325 171.614,165.325 172.5,164.5C 174.028,169.084 172.362,170.584 167.5,169C 163.986,166.468 163.653,163.635 166.5,160.5 Z"/></g>
<g><path style="opacity:1" fill="#cfcfcf" d="M 183.5,162.5 C 183.137,164.911 184.137,166.411 186.5,167C 184.881,167.236 183.881,168.069 183.5,169.5C 181.643,170.027 179.643,170.027 177.5,169.5C 181.456,168.947 181.456,168.114 177.5,167C 178.833,166.667 180.167,166.333 181.5,166C 182.598,165.23 182.598,164.397 181.5,163.5C 182.167,163.167 182.833,162.833 183.5,162.5 Z"/></g>
<g><path style="opacity:1" fill="#6e6e6e" d="M 254.5,162.5 C 255.5,162.5 256.5,162.5 257.5,162.5C 257.5,164.167 257.5,165.833 257.5,167.5C 251.987,171.029 249.321,169.363 249.5,162.5C 250.5,162.5 251.5,162.5 252.5,162.5C 253.167,169.167 253.833,169.167 254.5,162.5 Z"/></g>
<g><path style="opacity:1" fill="#8b8a8b" d="M 341.5,162.5 C 342.209,163.404 343.209,163.737 344.5,163.5C 344.077,165.781 344.744,167.448 346.5,168.5C 346.5,168.833 346.5,169.167 346.5,169.5C 343.99,169.946 341.99,169.28 340.5,167.5C 340.5,167.167 340.5,166.833 340.5,166.5C 340.792,165.126 341.125,163.793 341.5,162.5 Z"/></g>
<g><path style="opacity:1" fill="#cccccc" d="M 348.5,161.5 C 348.401,164.237 348.735,166.904 349.5,169.5C 348.5,169.5 347.5,169.5 346.5,169.5C 346.5,169.167 346.5,168.833 346.5,168.5C 346.5,166.833 346.5,165.167 346.5,163.5C 347.167,162.833 347.833,162.167 348.5,161.5 Z"/></g>
<g><path style="opacity:1" fill="#c9c9c9" d="M 382.5,162.5 C 382.137,164.911 383.137,166.411 385.5,167C 383.881,167.236 382.881,168.069 382.5,169.5C 380.5,169.5 378.5,169.5 376.5,169.5C 377.833,167.167 377.833,164.833 376.5,162.5C 377.167,162.5 377.833,162.5 378.5,162.5C 378.5,161.167 378.5,159.833 378.5,158.5C 379.5,158.5 380.5,158.5 381.5,158.5C 381.232,160.099 381.566,161.432 382.5,162.5 Z"/></g>
<g><path style="opacity:1" fill="#646464" d="M 378.5,162.5 C 379.693,162.97 380.36,163.97 380.5,165.5C 380.167,166.5 379.833,167.5 379.5,168.5C 378.534,166.604 378.201,164.604 378.5,162.5 Z"/></g>
<g><path style="opacity:1" fill="#4a4948" d="M 49.5,169.5 C 50.8333,169.5 52.1667,169.5 53.5,169.5C 55.4228,173.029 56.0894,177.029 55.5,181.5C 53.1944,181.007 50.861,180.674 48.5,180.5C 44.7356,179.577 43.2356,177.244 44,173.5C 45.451,171.536 47.2843,170.203 49.5,169.5 Z"/></g>
<g><path style="opacity:1" fill="#a9a9a9" d="M 210.5,164.5 C 212.727,166.229 213.727,168.562 213.5,171.5C 212.5,171.5 211.5,171.5 210.5,171.5C 210.737,170.209 210.404,169.209 209.5,168.5C 210.234,167.292 210.567,165.959 210.5,164.5 Z"/></g>
</svg>
